<svg width="511" height="511" viewBox="0 0 511 511" fill="none" xmlns="http://www.w3.org/2000/svg">
<path d="M125.983 39.2704C125.872 39.4367 125.566 39.4922 125.315 39.409C124.898 39.2981 124.759 39.4645 124.62 40.2964C124.536 40.8788 124.453 41.9326 124.453 42.6536C124.453 43.3746 124.342 44.0124 124.203 44.0956C124.063 44.1788 123.869 46.841 123.757 50.0024C123.646 53.1914 123.451 55.8814 123.34 56.0477C123.229 56.1864 123.034 58.5713 122.923 61.3167C122.839 64.0621 122.617 66.4747 122.45 66.6411C122.255 66.8907 122.255 67.1125 122.506 67.4175C122.7 67.6394 122.728 67.8335 122.561 67.8335C122.394 67.8335 122.2 69.6638 122.088 72.4092C121.977 74.9327 121.81 76.9848 121.671 76.9848C121.56 76.9848 121.393 78.4823 121.309 80.3403C121.226 82.1706 121.031 83.8344 120.892 84.0008C120.753 84.1949 120.53 86.0252 120.419 88.0773C120.308 90.1294 120.113 91.9597 119.974 92.1261C119.835 92.2925 119.64 93.79 119.557 95.4538C119.445 97.1177 119.278 98.6152 119.139 98.7816C119 98.9202 118.833 100.307 118.722 101.832C118.611 103.33 118.444 104.716 118.305 104.855C118.193 105.021 117.999 106.574 117.887 108.321C117.776 110.068 117.609 111.566 117.47 111.649C117.359 111.732 117.164 113.23 117.053 114.977C116.942 116.724 116.747 118.221 116.636 118.304C116.496 118.415 116.302 119.941 116.218 121.715C116.107 123.49 115.94 124.96 115.801 124.96C115.69 124.96 115.523 126.457 115.411 128.288C115.3 130.118 115.105 131.615 114.994 131.615C114.883 131.615 114.716 133.141 114.605 134.999C114.493 136.884 114.299 138.52 114.16 138.687C114.048 138.825 113.854 140.545 113.742 142.514C113.631 144.455 113.436 146.091 113.325 146.174C113.214 146.257 113.019 147.921 112.908 149.918C112.796 151.915 112.602 153.579 112.49 153.662C112.379 153.745 112.184 155.686 112.073 158.015C111.962 160.345 111.767 162.369 111.656 162.536C111.545 162.674 111.35 164.976 111.238 167.611C111.127 170.245 110.932 172.436 110.821 172.519C110.71 172.602 110.515 175.292 110.404 178.537C110.293 181.781 110.098 184.554 109.987 184.721C109.847 184.859 109.681 188.492 109.569 192.763C109.458 197.033 109.263 200.666 109.124 200.805C109.013 200.971 108.818 208.154 108.707 216.75C108.596 225.375 108.429 232.557 108.29 232.723C107.928 233.167 107.9 270.188 108.234 270.604C108.401 270.798 108.623 271.464 108.707 272.046C108.874 272.851 109.291 273.488 110.404 274.57C111.906 276.04 112.796 276.372 115.384 276.372C115.884 276.372 116.385 276.483 116.524 276.622C116.691 276.788 134.162 276.955 161.008 277.038C190.442 277.149 205.326 277.288 205.52 277.482C205.882 277.842 216.175 277.87 216.398 277.482C216.481 277.315 217.733 277.204 219.18 277.204C220.627 277.204 221.878 277.315 221.962 277.482C222.185 277.814 223.409 277.842 223.603 277.537C223.687 277.398 227.331 277.232 231.727 277.121C236.317 277.038 239.767 276.872 239.878 276.705C239.961 276.567 241.853 276.372 244.079 276.261C246.304 276.151 248.141 275.929 248.196 275.818C248.252 275.679 248.725 275.485 249.253 275.374C249.782 275.291 250.283 275.097 250.366 274.958C250.45 274.819 251.229 274.709 252.091 274.709C253.009 274.709 253.927 274.542 254.233 274.32C254.539 274.126 255.207 273.849 255.708 273.738C256.181 273.655 256.598 273.433 256.598 273.294C256.598 273.156 256.793 273.045 257.015 273.045C257.265 273.045 257.683 272.684 257.933 272.213C258.184 271.769 258.49 271.381 258.629 271.381C258.74 271.381 258.823 271.159 258.823 270.882C258.823 270.632 258.99 270.077 259.213 269.661C259.435 269.245 259.686 268.497 259.797 267.998C259.908 267.498 260.187 266.833 260.381 266.528C260.604 266.223 260.771 265.696 260.771 265.363C260.771 265.003 260.91 264.725 261.049 264.725C261.216 264.725 261.327 264.503 261.327 264.226C261.327 263.977 261.494 263.422 261.717 263.006C261.939 262.59 262.19 261.897 262.301 261.425C262.412 260.954 262.607 260.566 262.774 260.566C262.941 260.566 262.941 260.399 262.718 260.15C262.496 259.9 262.496 259.734 262.663 259.734C262.829 259.734 263.052 259.318 263.135 258.846C263.247 258.347 263.442 257.792 263.553 257.654C263.664 257.487 263.859 256.961 263.97 256.461C264.054 255.99 264.276 255.574 264.415 255.574C264.554 255.574 264.666 255.297 264.666 254.936C264.666 254.603 264.86 254.021 265.111 253.688C265.333 253.355 265.417 253.078 265.25 253.078C265.111 253.078 265.166 252.745 265.389 252.302C265.584 251.886 265.778 251.331 265.778 251.054C265.778 250.804 265.89 250.582 266.029 250.582C266.168 250.582 266.39 250.166 266.474 249.667C266.585 249.196 266.78 248.641 266.891 248.503C267.002 248.336 267.197 247.809 267.308 247.31C267.392 246.839 267.615 246.423 267.781 246.423C267.948 246.423 267.948 246.256 267.726 246.007C267.503 245.757 267.503 245.591 267.67 245.591C267.837 245.591 268.032 245.203 268.143 244.731C268.254 244.26 268.505 243.566 268.727 243.15C268.95 242.734 269.117 242.235 269.117 242.041C269.117 241.708 269.2 241.459 270.035 239.823C270.285 239.296 270.508 238.769 270.508 238.602C270.508 238.297 271.148 236.772 271.788 235.524C272.01 235.081 272.177 234.609 272.177 234.443C272.177 234.165 272.733 232.807 273.457 231.281C273.707 230.81 273.93 230.117 273.957 229.756C274.013 229.396 274.263 228.702 274.514 228.259C274.764 227.787 274.959 227.288 274.959 227.094C274.959 226.928 275.126 226.428 275.348 225.985C275.96 224.82 276.628 223.212 276.628 222.962C276.628 222.74 277.518 220.771 278.464 218.886C278.687 218.442 278.854 217.97 278.854 217.804C278.854 217.499 279.494 215.974 280.133 214.726C280.356 214.282 280.523 213.811 280.523 213.644C280.523 213.367 280.94 212.313 281.942 210.206C282.22 209.568 282.47 208.902 282.47 208.68C282.47 208.459 282.665 208.043 282.888 207.765C283.11 207.46 283.305 206.933 283.305 206.573C283.305 206.212 283.416 205.713 283.583 205.436C284.056 204.576 284.974 202.358 284.974 202.053C284.974 201.914 285.085 201.554 285.252 201.276C285.725 200.417 286.643 198.198 286.643 197.893C286.643 197.754 286.755 197.394 286.922 197.117C287.367 196.34 288.313 194.066 288.313 193.817C288.313 193.401 289.008 192.069 289.203 192.069C289.314 192.069 289.481 191.515 289.592 190.822C289.676 190.128 289.87 189.574 290.01 189.574C290.149 189.574 290.26 189.352 290.26 189.074C290.26 188.825 290.427 188.27 290.649 187.854C290.872 187.438 291.122 186.745 291.234 186.274C291.345 185.802 291.54 185.414 291.679 185.414C291.818 185.414 291.929 185.192 291.929 184.915C291.929 184.665 292.096 184.111 292.319 183.695C292.541 183.279 292.792 182.585 292.903 182.114C293.014 181.643 293.209 181.254 293.348 181.254C293.487 181.254 293.598 181.032 293.598 180.755C293.598 180.506 293.793 179.923 294.016 179.479C294.238 179.064 294.433 178.564 294.433 178.37C294.433 178.204 294.6 177.732 294.822 177.316C295.045 176.9 295.295 176.152 295.407 175.653C295.518 175.153 295.713 174.599 295.824 174.46C295.935 174.294 296.102 173.795 296.213 173.351C296.325 172.879 296.575 172.131 296.798 171.687C297.577 169.968 298.05 168.831 298.05 168.553C298.05 168.415 298.356 167.749 298.689 167.084C299.051 166.418 299.441 165.475 299.552 165.032C299.719 164.31 299.997 163.589 300.832 161.842C300.943 161.593 301.138 161.01 301.249 160.484C301.36 159.984 301.611 159.263 301.833 158.847C302.056 158.431 302.223 157.932 302.223 157.738C302.223 157.405 302.306 157.156 303.141 155.52C303.391 154.993 303.614 154.466 303.614 154.3C303.614 154.022 304.059 152.913 304.865 151.166C305.088 150.694 305.338 149.973 305.45 149.53C305.561 149.086 305.811 148.393 306.006 148.005C306.229 147.616 306.396 147.145 306.396 146.951C306.396 146.784 306.618 146.23 306.868 145.703C307.675 144.094 307.731 143.9 307.926 142.874C308.037 142.32 308.232 141.793 308.371 141.71C308.51 141.626 308.621 141.349 308.621 141.099C308.621 140.85 308.788 140.295 309.011 139.879C309.233 139.463 309.484 138.77 309.595 138.299C309.706 137.827 309.901 137.439 310.04 137.439C310.179 137.439 310.29 137.217 310.29 136.94C310.29 136.69 310.457 136.136 310.68 135.72C310.902 135.304 311.153 134.61 311.264 134.139C311.375 133.667 311.542 133.279 311.681 133.279C311.82 133.279 312.015 132.725 312.126 132.031C312.21 131.338 312.405 130.783 312.516 130.783C312.655 130.783 312.85 130.367 312.933 129.868C313.045 129.397 313.323 128.731 313.517 128.426C313.74 128.121 313.907 127.594 313.907 127.262C313.907 126.901 314.018 126.624 314.157 126.624C314.296 126.624 314.491 126.236 314.602 125.764C314.714 125.293 314.964 124.599 315.187 124.183C315.409 123.767 315.576 123.213 315.576 122.935C315.576 122.686 315.715 122.464 315.854 122.464C316.021 122.464 316.133 122.187 316.133 121.826C316.133 121.493 316.299 120.967 316.522 120.662C316.717 120.356 316.995 119.691 317.106 119.192C317.217 118.693 317.468 117.944 317.69 117.528C317.913 117.112 318.08 116.557 318.08 116.28C318.08 116.03 318.219 115.809 318.358 115.809C318.525 115.809 318.636 115.642 318.636 115.42C318.636 115.226 318.831 114.893 319.054 114.699C319.415 114.394 319.471 114.477 319.471 115.088C319.471 115.476 319.582 115.809 319.721 115.809C319.833 115.809 320.027 116.391 320.139 117.084C320.222 117.805 320.445 118.554 320.612 118.776C320.806 118.97 320.973 119.525 321.029 120.024C321.084 120.495 321.251 121.022 321.391 121.188C321.53 121.355 321.724 121.993 321.836 122.603C322.003 123.684 322.169 124.183 322.948 125.93C323.171 126.374 323.421 127.317 323.533 128.01C323.616 128.704 323.811 129.369 323.922 129.536C324.117 129.785 324.562 131.338 324.645 132.031C324.645 132.17 324.812 132.669 325.035 133.141C325.758 134.832 325.842 135.11 326.036 136.33C326.12 137.023 326.315 137.688 326.426 137.855C326.621 138.104 327.094 139.741 327.121 140.351C327.149 140.489 327.288 140.905 327.483 141.238C327.678 141.571 327.817 142.209 327.817 142.625C327.817 143.068 327.928 143.54 328.095 143.706C328.234 143.845 328.429 144.51 328.512 145.204C328.596 145.869 328.791 146.562 328.902 146.701C329.041 146.868 329.236 147.616 329.347 148.393C329.458 149.142 329.653 149.89 329.764 150.057C329.903 150.195 330.07 150.833 330.182 151.443C330.293 152.053 330.488 152.663 330.599 152.83C330.738 152.968 330.905 153.856 331.016 154.771C331.127 155.686 331.322 156.546 331.433 156.712C331.573 156.851 331.74 157.6 331.851 158.376C331.962 159.125 332.157 159.873 332.268 160.04C332.379 160.179 332.574 161.066 332.685 161.981C332.797 162.896 332.991 163.7 333.103 163.784C333.242 163.867 333.437 164.81 333.52 165.863C333.631 166.945 333.826 167.86 333.937 167.943C334.076 168.026 334.271 168.969 334.382 170.023C334.494 171.105 334.688 172.02 334.8 172.103C334.939 172.186 335.106 173.157 335.217 174.266C335.328 175.375 335.495 176.263 335.607 176.263C335.718 176.263 335.913 177.261 335.996 178.481C336.107 179.701 336.302 180.755 336.441 180.838C336.58 180.921 336.775 181.975 336.886 183.195C336.97 184.416 337.164 185.414 337.276 185.414C337.387 185.414 337.582 186.551 337.693 187.91C337.804 189.296 337.999 190.461 338.11 190.544C338.249 190.627 338.416 191.737 338.528 193.04C338.639 194.343 338.834 195.453 338.945 195.536C339.056 195.619 339.251 196.701 339.362 197.948C339.473 199.224 339.668 200.361 339.78 200.527C339.891 200.666 340.086 202.025 340.197 203.495C340.308 204.992 340.503 206.268 340.614 206.351C340.753 206.434 340.92 207.433 341.031 208.57C341.143 209.734 341.337 210.705 341.449 210.788C341.588 210.871 341.755 212.23 341.866 213.838C341.977 215.447 342.172 216.75 342.283 216.75C342.395 216.75 342.589 217.859 342.701 219.246C342.812 220.605 343.007 221.742 343.118 221.742C343.229 221.742 343.424 222.851 343.535 224.238C343.646 225.624 343.841 226.733 343.952 226.733C344.064 226.733 344.259 227.843 344.37 229.229C344.481 230.588 344.676 231.725 344.787 231.725C344.898 231.725 345.093 232.723 345.204 233.944C345.316 235.164 345.51 236.218 345.622 236.301C345.733 236.384 345.928 237.493 346.039 238.797C346.15 240.1 346.345 241.209 346.456 241.292C346.595 241.376 346.762 242.402 346.874 243.594C346.985 244.759 347.18 245.84 347.291 246.007C347.402 246.145 347.597 247.088 347.708 248.087C347.819 249.085 348.014 250 348.125 250.166C348.237 250.305 348.432 251.248 348.543 252.246C348.654 253.245 348.849 254.16 348.96 254.326C349.071 254.465 349.266 255.408 349.377 256.406C349.489 257.404 349.711 258.375 349.85 258.541C350.073 258.819 349.85 258.902 348.877 258.902C348.181 258.902 347.541 259.013 347.458 259.151C347.374 259.262 346.178 259.484 344.787 259.567C343.424 259.678 342.228 259.872 342.144 260.011C342.089 260.122 340.948 260.316 339.64 260.427C338.333 260.538 337.22 260.704 337.137 260.843C337.053 260.954 336.135 261.148 335.05 261.259C333.965 261.37 333.047 261.564 332.964 261.675C332.88 261.814 331.879 261.98 330.738 262.091C329.597 262.202 328.652 262.396 328.652 262.507C328.652 262.645 327.706 262.812 326.565 262.923C325.424 263.034 324.479 263.228 324.479 263.339C324.479 263.477 323.533 263.644 322.392 263.755C321.251 263.866 320.306 264.06 320.306 264.171C320.306 264.309 319.499 264.503 318.497 264.587C317.496 264.698 316.605 264.892 316.55 265.003C316.466 265.141 315.604 265.335 314.602 265.419C313.601 265.53 312.794 265.724 312.794 265.835C312.794 265.973 312.043 266.14 311.125 266.251C310.207 266.361 309.456 266.528 309.456 266.666C309.456 266.777 308.844 266.944 308.065 267.055C307.314 267.166 306.618 267.332 306.562 267.471C306.479 267.609 305.783 267.776 305.005 267.887C304.253 267.998 303.614 268.164 303.614 268.303C303.614 268.441 303.001 268.608 302.223 268.719C301.471 268.83 300.776 269.024 300.692 269.135C300.609 269.273 300.053 269.467 299.441 269.578C298.829 269.689 298.272 269.856 298.189 269.994C298.105 270.133 297.549 270.299 296.937 270.41C296.325 270.521 295.768 270.688 295.685 270.826C295.601 270.937 295.128 271.131 294.6 271.214C294.043 271.325 293.265 271.575 292.847 271.797C292.43 272.019 291.901 272.213 291.707 272.213C291.512 272.213 291.15 272.324 290.872 272.462C289.37 273.183 288.368 273.599 287.645 273.766C287.2 273.877 286.504 274.126 286.115 274.32C285.725 274.542 285.252 274.709 285.058 274.709C284.891 274.709 284.39 274.875 283.945 275.097C281.33 276.4 278.381 277.759 278.158 277.759C277.769 277.787 273.874 279.728 272.872 280.421C272.4 280.726 271.342 281.309 270.508 281.752C267.67 283.167 266.112 284.054 265.361 284.636C264.944 284.969 264.471 285.246 264.332 285.246C264.193 285.246 263.664 285.524 263.191 285.884C261.967 286.716 261.299 287.132 260.493 287.52C260.103 287.714 259.352 288.186 258.823 288.574C257.683 289.406 256.904 289.905 256.32 290.155C256.097 290.266 255.624 290.654 255.29 291.042C254.706 291.652 254.066 292.096 253.009 292.623C252.786 292.734 252.147 293.316 251.562 293.899C251.006 294.481 250.422 294.952 250.31 294.952C250.004 294.952 243.801 301.109 243.801 301.414C243.801 301.552 243.495 301.968 243.133 302.384C242.743 302.8 241.825 303.826 241.046 304.686C240.267 305.546 239.628 306.322 239.628 306.433C239.628 306.655 239.461 306.877 238.125 308.43C237.569 309.068 237.124 309.705 237.124 309.872C237.124 310.038 237.04 310.205 236.929 310.26C236.595 310.399 235.455 312.09 235.455 312.423C235.455 312.562 235.343 312.7 235.232 312.7C235.093 312.7 234.731 313.255 234.397 313.921C234.064 314.586 233.591 315.279 233.368 315.473C233.146 315.668 232.951 316.028 232.951 316.305C232.951 316.583 232.756 316.943 232.534 317.137C232.311 317.331 232.116 317.692 232.116 317.942C232.116 318.191 231.921 318.635 231.699 318.912C231.476 319.217 231.282 319.661 231.282 319.938C231.282 320.188 231.087 320.548 230.864 320.742C230.614 320.936 230.475 321.242 230.53 321.408C230.614 321.574 230.447 321.935 230.197 322.212C229.501 323.016 229.529 331.946 230.224 332.944C230.503 333.305 230.725 333.859 230.725 334.137C230.725 335.107 232.728 337.104 234.759 338.102L236.707 339.1L240.852 339.073C243.105 339.073 245.108 338.962 245.303 338.823C245.47 338.684 246.916 338.49 248.53 338.379C250.116 338.269 251.562 338.074 251.729 337.963C251.868 337.825 252.926 337.631 254.038 337.52C255.123 337.409 256.097 337.215 256.181 337.104C256.264 336.965 257.293 336.799 258.49 336.688C259.658 336.577 260.771 336.383 260.938 336.244C261.105 336.105 262.023 335.911 262.969 335.828C263.887 335.717 264.666 335.551 264.666 335.412C264.666 335.301 265.611 335.135 266.752 335.024C267.893 334.913 268.839 334.719 268.839 334.608C268.839 334.469 269.645 334.275 270.647 334.192C271.648 334.081 272.511 333.887 272.594 333.776C272.678 333.637 273.401 333.471 274.208 333.36C274.987 333.249 275.794 333.055 275.96 332.916C276.127 332.778 277.045 332.584 277.991 332.5C278.909 332.39 279.688 332.223 279.688 332.112C279.688 331.974 280.44 331.807 281.358 331.696C282.276 331.585 283.027 331.391 283.027 331.28C283.027 331.142 283.834 330.947 284.835 330.864C285.837 330.753 286.727 330.559 286.782 330.448C286.866 330.31 287.784 330.116 288.813 330.032C289.843 329.921 290.816 329.727 290.983 329.589C291.15 329.45 292.402 329.256 293.765 329.173C295.128 329.062 296.408 328.868 296.603 328.701C296.853 328.507 299.886 328.396 305.255 328.396C311.876 328.368 313.629 328.452 313.99 328.757C314.296 329.006 314.463 329.034 314.463 328.812C314.463 328.646 314.658 328.507 314.881 328.507C315.103 328.507 315.298 328.618 315.298 328.757C315.298 328.895 316.272 329.089 317.468 329.2C318.636 329.311 319.749 329.478 319.888 329.616C320.055 329.727 320.751 329.921 321.502 330.005C322.225 330.116 323.143 330.393 323.588 330.615C324.006 330.809 324.562 331.003 324.84 331.003C325.091 331.003 325.313 331.114 325.313 331.28C325.313 331.419 325.591 331.558 325.953 331.558C326.287 331.558 326.815 331.724 327.121 331.946C327.427 332.14 328.095 332.417 328.596 332.528C329.069 332.611 329.486 332.833 329.486 332.972C329.486 333.111 329.792 333.221 330.182 333.221C330.571 333.221 330.961 333.416 331.044 333.637C331.155 333.859 331.489 334.053 331.851 334.053C332.185 334.053 332.797 334.303 333.186 334.608C333.576 334.913 334.076 335.163 334.299 335.163C334.494 335.163 334.911 335.412 335.217 335.745C335.495 336.05 336.107 336.494 336.58 336.716C337.47 337.132 338.444 337.686 338.667 337.963C338.75 338.047 339.001 338.213 339.223 338.324C339.974 338.657 340.725 339.156 341.755 339.932C342.311 340.376 342.895 340.709 343.062 340.709C343.48 340.709 353.689 350.831 353.689 351.247C353.689 351.413 354.107 352.079 354.608 352.716C355.136 353.354 355.637 354.075 355.748 354.297C355.859 354.519 356.249 355.212 356.638 355.822C357 356.432 357.39 357.153 357.473 357.403C357.584 357.68 357.751 357.902 357.862 357.902C358.002 357.902 358.168 358.29 358.28 358.734C358.391 359.206 358.586 359.566 358.725 359.566C358.864 359.566 358.975 359.788 358.975 360.038C358.975 360.315 359.17 360.897 359.393 361.313C359.615 361.729 359.866 362.506 359.977 363.06C360.06 363.587 360.255 364.086 360.394 364.17C360.533 364.225 360.7 364.918 360.811 365.667C360.923 366.443 361.09 367.054 361.201 367.054C361.312 367.054 361.479 367.664 361.59 368.44C361.702 369.189 361.896 369.882 362.035 369.965C362.175 370.049 362.369 370.714 362.453 371.435C362.536 372.156 362.731 372.933 362.87 373.21C363.009 373.459 363.204 374.624 363.315 375.844C363.426 377.037 363.593 378.146 363.732 378.312C363.955 378.59 364.233 380.503 364.345 382.722C364.4 383.332 364.511 383.97 364.623 384.164C364.734 384.33 364.901 386.576 364.984 389.155C365.096 391.707 365.29 393.981 365.43 394.175C365.624 394.397 365.624 394.507 365.43 394.507C365.096 394.507 365.124 396.116 365.457 396.643C365.569 396.809 365.541 397.003 365.402 397.059C365.29 397.086 365.096 398.39 364.984 399.887C364.901 401.413 364.706 402.771 364.539 402.965C364.4 403.132 364.205 404.075 364.094 405.073C364.011 406.044 363.816 406.959 363.677 407.125C363.538 407.264 363.426 407.652 363.426 407.985C363.426 408.318 363.26 408.734 363.037 408.9C362.842 409.066 362.592 409.815 362.481 410.564C362.397 411.313 362.119 412.061 361.896 412.255C361.674 412.45 361.479 412.782 361.479 412.976C361.479 413.392 361.34 413.725 360.561 415.167C360.338 415.611 359.838 416.554 359.504 417.247C359.142 417.94 358.391 419.077 357.807 419.798C357.223 420.519 356.75 421.185 356.75 421.324C356.75 421.629 350.268 428.062 349.962 428.062C349.823 428.062 348.988 428.7 348.098 429.449C347.207 430.225 346.401 430.835 346.317 430.835C346.206 430.835 345.65 431.196 345.093 431.612C344.537 432.056 343.007 432.943 341.643 433.609C340.308 434.274 339.084 434.967 338.917 435.189C338.722 435.383 338.389 435.55 338.11 435.55C337.832 435.55 337.47 435.716 337.304 435.938C337.109 436.16 336.636 436.409 336.219 436.493C335.801 436.603 334.716 437.047 333.798 437.491C331.378 438.628 330.126 439.155 329.792 439.155C329.458 439.155 329.236 439.266 327.567 440.098C327.038 440.347 326.064 440.625 325.397 440.735C324.729 440.819 324.117 441.013 324.033 441.124C323.95 441.262 323.282 441.429 322.531 441.54C321.752 441.651 321.14 441.817 321.14 441.928C321.14 442.067 320.389 442.233 319.471 442.344C318.553 442.455 317.802 442.649 317.802 442.76C317.802 442.898 316.828 443.065 315.66 443.176C314.463 443.287 313.351 443.481 313.184 443.619C313.017 443.758 311.932 443.952 310.735 444.035C309.567 444.146 308.621 444.313 308.621 444.424C308.621 444.535 307.286 444.729 305.644 444.84C303.975 444.951 302.501 445.145 302.362 445.256C302.195 445.394 299.83 445.588 297.076 445.699C294.322 445.81 291.929 446.004 291.734 446.143C291.54 446.309 291.373 446.254 291.317 446.032C291.206 445.755 291.095 445.755 290.789 446.004C290.483 446.254 286.282 446.393 274.959 446.531C266.474 446.642 259.38 446.809 259.213 446.947C259.046 447.086 258.768 447.03 258.573 446.836C258.323 446.587 258.184 446.587 257.989 446.92C257.766 447.28 257.655 447.28 257.099 446.947C256.709 446.698 256.459 446.67 256.375 446.864C256.181 447.474 209.721 447.53 209.304 446.92C209.22 446.809 206.911 446.614 204.157 446.504C201.403 446.393 199.038 446.226 198.871 446.088C198.732 445.977 196.896 445.783 194.837 445.672C192.779 445.561 190.971 445.394 190.804 445.256C190.664 445.145 188.967 444.951 187.048 444.84C185.128 444.729 183.459 444.535 183.292 444.424C183.153 444.285 180.761 444.119 178.006 444.008C172.275 443.786 171.969 443.758 171.608 443.536C171.441 443.453 168.269 443.287 164.514 443.176C160.758 443.065 157.587 442.871 157.447 442.732C157.281 442.593 155.89 442.483 154.304 442.483C150.465 442.483 150.465 442.483 150.381 438.323C150.326 436.576 150.159 435.078 150.02 435.051C149.853 434.967 149.88 434.801 150.075 434.551C150.326 434.246 150.326 434.052 150.047 433.747C149.769 433.414 149.769 433.248 150.047 432.915C150.298 432.638 150.298 432.499 150.075 432.499C149.658 432.499 149.686 431.584 150.103 431.168C150.353 430.919 150.353 430.835 150.103 430.835C149.686 430.835 149.602 413.226 150.047 412.949C150.214 412.838 150.186 412.588 149.992 412.255C149.741 411.867 149.741 411.645 149.992 411.368C150.242 411.063 150.242 410.897 149.964 410.619C149.713 410.37 149.713 410.231 149.964 410.092C150.131 409.982 150.27 409.593 150.242 409.205C150.159 406.044 150.687 393.426 150.965 392.899C151.216 392.4 151.188 392.206 150.91 392.039C150.632 391.845 150.632 391.707 150.938 391.207C151.244 390.708 151.244 390.57 150.91 390.376C150.659 390.209 150.632 390.07 150.854 389.96C151.244 389.71 151.244 388.684 150.854 388.684C150.632 388.684 150.632 388.573 150.826 388.323C151.021 388.102 151.188 384.191 151.327 377.591C151.411 371.685 151.605 367.137 151.772 367.109C151.911 367.054 151.883 366.832 151.689 366.61C151.438 366.305 151.438 366.111 151.717 365.806C151.995 365.473 151.995 365.306 151.717 364.974C151.466 364.696 151.466 364.447 151.661 364.225C151.828 364.003 152.023 360.814 152.134 356.377C152.245 351.441 152.412 348.668 152.635 348.224C152.913 347.697 152.885 347.531 152.607 347.42C152.356 347.337 152.329 347.198 152.523 346.976C152.662 346.81 152.885 343.926 152.996 340.57C153.08 337.215 153.274 334.331 153.414 334.164C153.553 333.998 153.525 333.748 153.33 333.554C153.108 333.332 153.108 333.138 153.302 332.889C153.664 332.473 153.747 327.453 153.775 304.908C153.803 293.621 153.886 289.378 154.137 289.101C154.387 288.796 154.332 288.574 153.97 288.13C153.525 287.576 153.302 287.548 149.741 287.659C147.683 287.714 145.541 287.77 144.928 287.742C144.344 287.742 143.704 287.853 143.482 288.047C143.287 288.214 142.341 288.38 141.423 288.463C140.477 288.519 139.587 288.657 139.392 288.768C138.641 289.267 137.222 289.6 136.555 289.462C136.137 289.406 135.497 289.489 135.08 289.683C134.663 289.878 133.967 290.183 133.494 290.404C133.049 290.626 132.243 290.876 131.742 290.959C131.241 291.07 130.768 291.264 130.685 291.375C130.601 291.514 130.323 291.625 130.073 291.625C129.822 291.625 129.266 291.791 128.849 292.013C128.431 292.235 127.68 292.484 127.179 292.595C126.679 292.706 126.011 292.983 125.705 293.178C125.399 293.399 124.898 293.566 124.592 293.566C124.286 293.594 123.73 293.954 123.34 294.398C122.951 294.869 122.394 295.23 122.033 295.23C121.671 295.23 121.393 295.341 121.393 295.479C121.393 295.618 121.059 295.812 120.669 295.895C120.28 296.006 119.696 296.367 119.362 296.727C119.028 297.06 118.527 297.42 118.277 297.531C117.999 297.615 117.776 297.892 117.776 298.141C117.776 298.391 117.526 298.557 117.164 298.557C116.802 298.585 116.218 298.946 115.829 299.389C115.467 299.861 114.994 300.221 114.799 300.221C114.605 300.221 114.438 300.36 114.438 300.526C114.438 300.887 113.881 301.441 113.269 301.691C112.991 301.774 112.769 302.052 112.769 302.301C112.769 302.523 112.602 302.717 112.379 302.717C111.906 302.717 111.266 303.466 111.628 303.604C111.823 303.66 112.407 325.374 112.268 328.341C112.24 328.784 112.351 329.339 112.518 329.533C112.741 329.783 112.741 329.894 112.518 329.894C112.351 329.894 112.212 330.088 112.212 330.31C112.212 330.532 112.351 330.726 112.518 330.726C112.741 330.726 112.741 330.864 112.49 331.142C112.212 331.474 112.212 331.641 112.49 331.974C112.769 332.306 112.769 332.473 112.49 332.805C112.24 333.083 112.24 333.221 112.463 333.221C112.685 333.221 112.769 334.802 112.769 338.629C112.769 342.65 112.685 344.037 112.435 344.037C112.184 344.037 112.184 344.12 112.435 344.369C112.852 344.785 112.88 345.7 112.463 345.7C112.24 345.7 112.24 345.839 112.49 346.116C112.769 346.449 112.769 346.616 112.49 346.948C112.212 347.281 112.212 347.448 112.49 347.78C112.713 348.058 112.741 348.196 112.546 348.196C112.379 348.196 112.24 348.529 112.268 348.945C112.296 350.359 112.268 393.509 112.24 394.979C112.212 395.755 112.323 396.476 112.49 396.587C112.685 396.698 112.685 396.892 112.546 397.086C112.24 397.475 112.268 398.667 112.574 399.166C112.713 399.36 112.685 399.693 112.49 399.915C112.323 400.109 112.296 400.359 112.407 400.414C112.769 400.636 112.824 403.853 112.49 404.075C112.268 404.213 112.268 404.38 112.463 404.602C112.657 404.851 112.796 414.003 112.908 432.222C112.991 452.022 113.13 459.537 113.353 459.704C113.575 459.842 113.575 459.925 113.353 460.064C112.963 460.314 112.936 461.34 113.325 461.34C113.492 461.34 113.603 461.534 113.603 461.756C113.603 461.978 113.464 462.172 113.297 462.172C113.075 462.172 113.075 462.283 113.269 462.504C113.436 462.699 113.603 463.974 113.687 465.361C113.742 466.858 113.937 467.884 114.132 467.94C114.299 467.995 114.438 468.217 114.438 468.411C114.438 468.855 115.328 469.104 116.997 469.104C117.721 469.104 118.388 469.243 118.472 469.382C118.611 469.604 118.806 469.576 119.084 469.354C119.362 469.104 119.529 469.077 119.668 469.299C119.779 469.465 120.169 469.604 120.558 469.576C122.784 469.52 133.272 470.047 133.522 470.241C133.689 470.38 133.94 470.352 134.134 470.158C134.357 469.936 134.552 469.936 134.802 470.131C134.997 470.297 137.473 470.491 140.283 470.602C143.12 470.713 145.568 470.907 145.763 471.073C145.986 471.268 146.153 471.24 146.292 471.046C146.403 470.852 146.598 470.824 146.792 470.99C146.987 471.157 148.684 471.351 150.604 471.462C152.523 471.573 154.193 471.739 154.359 471.878C154.499 471.989 156.251 472.183 158.254 472.294C160.229 472.405 161.926 472.571 162.01 472.71C162.093 472.848 164.236 473.042 166.739 473.126C169.271 473.236 171.469 473.431 171.636 473.569C171.803 473.708 172.053 473.68 172.248 473.486C172.47 473.264 172.665 473.264 173.027 473.569C173.75 474.179 213.199 474.124 213.199 473.514C213.199 473.126 214.256 473.236 214.395 473.597C214.506 473.874 214.617 473.874 214.784 473.625C214.951 473.403 217.733 473.264 224.048 473.126C229.028 473.015 233.229 472.82 233.396 472.682C233.563 472.543 233.813 472.571 234.008 472.765C234.258 473.015 234.481 473.015 234.954 472.765C235.371 472.571 238.793 472.405 244.357 472.294C250.116 472.183 253.232 472.016 253.482 471.794C253.76 471.573 253.927 471.6 254.094 471.85C254.205 472.072 254.372 472.099 254.483 471.933C254.567 471.794 256.765 471.573 259.38 471.462C261.967 471.351 264.165 471.157 264.248 471.046C264.332 470.907 265.778 470.713 267.448 470.63C269.145 470.519 270.508 470.325 270.508 470.214C270.508 470.103 271.621 469.909 273.012 469.826C274.375 469.715 275.571 469.52 275.654 469.41C275.71 469.271 276.656 469.104 277.741 468.994C278.798 468.883 279.744 468.689 279.827 468.578C279.883 468.439 280.718 468.273 281.608 468.162C282.526 468.051 283.361 467.857 283.444 467.746C283.5 467.607 284.251 467.413 285.113 467.302C285.948 467.219 286.699 467.025 286.782 466.886C286.866 466.747 287.534 466.553 288.257 466.442C288.98 466.359 289.704 466.165 289.843 466.054C290.01 465.915 290.594 465.749 291.178 465.638C291.734 465.527 292.291 465.333 292.346 465.194C292.43 465.083 293.07 464.889 293.737 464.778C294.433 464.695 295.073 464.501 295.156 464.362C295.24 464.224 295.518 464.113 295.768 464.113C296.019 464.113 296.575 463.946 296.992 463.725C297.41 463.503 298.161 463.253 298.662 463.142C299.162 463.031 299.719 462.837 299.858 462.726C300.025 462.615 300.526 462.449 300.971 462.338C301.722 462.172 302.695 461.783 304.226 461.035C304.504 460.896 304.865 460.785 305.032 460.785C305.338 460.785 306.34 460.369 308.51 459.371C309.15 459.094 309.79 458.844 309.929 458.844C310.096 458.844 310.902 458.483 311.765 458.012C312.627 457.568 313.601 457.18 313.907 457.18C314.213 457.18 314.463 457.069 314.463 456.93C314.463 456.792 314.853 456.598 315.298 456.487C315.771 456.376 316.133 456.209 316.133 456.071C316.133 455.932 316.522 455.766 316.967 455.655C317.44 455.544 317.802 455.378 317.802 455.239C317.802 455.1 318.191 454.934 318.636 454.823C319.109 454.712 319.471 454.546 319.471 454.407C319.471 454.268 319.86 454.102 320.306 453.991C320.778 453.88 321.14 453.714 321.14 453.575C321.14 453.436 321.53 453.27 321.975 453.159C322.448 453.048 322.809 452.882 322.809 452.743C322.809 452.604 323.199 452.438 323.644 452.327C324.117 452.216 324.479 452.05 324.479 451.911C324.479 451.772 325.897 450.968 327.622 450.109C330.988 448.417 331.767 448.001 331.99 447.696C332.073 447.613 332.491 447.419 332.908 447.335C333.325 447.225 333.659 447.03 333.659 446.92C333.659 446.781 334.049 446.614 334.494 446.504C334.967 446.393 335.328 446.226 335.328 446.088C335.328 445.949 335.718 445.783 336.163 445.672C336.636 445.561 336.998 445.394 336.998 445.256C336.998 445.117 337.387 444.951 337.832 444.84C338.305 444.729 338.667 444.562 338.667 444.451C338.667 444.34 339.613 443.786 340.753 443.204C341.894 442.621 342.84 442.067 342.84 441.928C342.84 441.789 343.229 441.623 343.674 441.512C344.147 441.401 344.509 441.235 344.509 441.096C344.509 440.985 344.731 440.791 345.01 440.708C345.9 440.375 347.013 439.682 347.013 439.46C347.013 439.321 347.347 439.127 347.764 439.016C348.181 438.933 348.598 438.739 348.682 438.656C348.96 438.295 350.601 437.214 350.908 437.214C351.047 437.214 351.186 437.103 351.186 436.964C351.186 436.825 351.408 436.631 351.686 436.548C352.577 436.215 353.689 435.522 353.689 435.3C353.689 435.161 353.912 434.995 354.19 434.884C354.719 434.718 354.774 434.69 357.946 432.555C359.142 431.778 360.199 431.113 360.283 431.113C360.366 431.113 360.895 430.752 361.479 430.281C362.063 429.837 362.62 429.449 362.731 429.449C362.842 429.449 363.399 429.088 363.983 428.617C364.567 428.173 365.124 427.785 365.235 427.785C365.346 427.785 365.902 427.424 366.487 426.953C367.071 426.509 367.627 426.121 367.739 426.121C367.85 426.121 368.629 425.566 369.436 424.873C370.215 424.18 370.966 423.625 371.077 423.625C371.188 423.625 372.19 422.821 373.303 421.823C374.415 420.824 375.417 420.02 375.528 420.02C375.639 420.02 376.891 418.966 378.31 417.663C379.729 416.36 381.009 415.306 381.148 415.306C381.454 415.306 389.855 406.931 389.855 406.598C389.855 406.487 390.662 405.489 391.664 404.435C392.665 403.354 393.472 402.355 393.472 402.217C393.472 402.078 394.028 401.302 394.724 400.525C395.419 399.721 395.976 398.972 395.976 398.861C395.976 398.723 396.337 398.14 396.755 397.586C397.172 397.031 397.784 396.088 398.062 395.478C398.368 394.868 398.758 394.175 398.953 393.953C399.453 393.287 400.983 390.265 400.983 389.849C400.983 389.682 401.095 389.516 401.234 389.516C401.373 389.516 401.595 389.1 401.679 388.628C401.79 388.129 402.068 387.464 402.263 387.159C402.486 386.854 402.653 386.299 402.653 385.883C402.653 385.467 402.847 384.996 403.07 384.802C403.292 384.607 403.487 384.108 403.487 383.665C403.487 383.221 403.599 382.86 403.738 382.86C403.849 382.86 404.044 382.084 404.155 381.169C404.238 380.226 404.461 379.283 404.628 379.089C404.878 378.812 404.85 378.59 404.628 378.312C404.377 378.007 404.377 377.896 404.656 377.813C405.101 377.647 405.129 364.197 404.656 363.643C404.517 363.476 404.294 361.923 404.183 360.259C404.071 358.568 403.877 357.07 403.765 356.932C403.654 356.765 403.459 355.85 403.348 354.852C403.237 353.853 403.042 352.911 402.931 352.772C402.82 352.606 402.625 351.718 402.514 350.748C402.402 349.805 402.235 349.028 402.096 349.028C401.985 349.028 401.818 348.418 401.707 347.642C401.595 346.893 401.429 346.2 401.289 346.144C401.15 346.061 400.956 345.534 400.872 345.007C400.761 344.48 400.566 344.037 400.427 344.037C400.288 344.037 400.093 343.482 399.982 342.789C399.898 342.095 399.704 341.541 399.592 341.541C399.453 341.541 399.286 341.18 399.175 340.709C399.064 340.265 398.897 339.877 398.758 339.877C398.619 339.877 398.452 339.516 398.341 339.045C398.229 338.601 398.035 338.213 397.895 338.213C397.756 338.213 397.645 338.074 397.645 337.936C397.645 337.548 396.504 335.939 396.059 335.634C395.865 335.523 395.698 335.274 395.698 335.079C395.698 334.691 390.69 329.616 390.328 329.616C390.189 329.616 389.633 329.117 389.049 328.507C388.492 327.897 387.88 327.398 387.741 327.398C387.574 327.398 387.101 327.01 386.656 326.566C386.211 326.095 385.71 325.734 385.516 325.734C385.349 325.734 385.126 325.54 385.015 325.318C384.931 325.096 384.709 324.902 384.542 324.902C384.375 324.902 383.763 324.514 383.206 324.07C381.621 322.739 381.593 322.711 380.842 322.517C380.452 322.434 380.118 322.24 380.118 322.101C380.118 321.963 379.84 321.713 379.506 321.574C378.894 321.325 378.533 321.103 377.42 320.465C377.142 320.299 376.697 320.105 376.446 320.021C376.168 319.91 375.945 319.744 375.945 319.633C375.945 319.494 375.584 319.328 375.111 319.217C374.666 319.106 374.276 318.912 374.276 318.773C374.276 318.635 373.942 318.441 373.525 318.357C373.108 318.247 372.579 317.997 372.385 317.775C372.19 317.581 371.772 317.415 371.466 317.415C371.188 317.415 370.938 317.304 370.938 317.165C370.938 317.026 370.548 316.832 370.075 316.721C369.603 316.61 368.907 316.361 368.49 316.139C368.072 315.917 367.572 315.751 367.377 315.751C367.182 315.751 366.821 315.64 366.542 315.501C364.817 314.669 363.955 314.364 362.787 314.198C362.063 314.115 361.423 313.921 361.34 313.81C361.257 313.671 360.338 313.477 359.309 313.394C358.28 313.283 357.306 313.089 357.167 312.95C357 312.839 355.08 312.645 352.911 312.534C350.713 312.423 348.877 312.229 348.793 312.09C348.571 311.73 341.783 311.813 341.56 312.173C341.449 312.395 341.31 312.368 341.17 312.118C341.004 311.868 340.837 311.841 340.558 312.062C340.364 312.229 337.721 312.423 334.382 312.534C331.183 312.645 328.429 312.811 328.262 312.95C328.095 313.089 326.704 313.283 325.174 313.394C323.644 313.505 322.281 313.699 322.114 313.81C321.975 313.921 320.751 314.115 319.415 314.226C318.052 314.336 316.967 314.503 316.967 314.642C316.967 314.752 315.966 314.947 314.742 315.03C313.517 315.141 312.46 315.335 312.377 315.473C312.293 315.584 311.375 315.778 310.29 315.889C309.205 316 308.287 316.194 308.204 316.305C308.12 316.444 307.258 316.638 306.256 316.721C305.255 316.832 304.448 317.026 304.448 317.137C304.448 317.276 303.697 317.442 302.779 317.553C301.861 317.664 301.11 317.858 301.11 317.969C301.11 318.08 300.359 318.274 299.441 318.385C298.522 318.496 297.771 318.663 297.771 318.801C297.771 318.912 296.992 319.079 296.074 319.189C295.128 319.273 294.21 319.467 294.043 319.605C293.877 319.744 292.959 319.938 291.985 320.049C291.039 320.16 290.204 320.354 290.121 320.465C290.037 320.604 289.258 320.798 288.368 320.909C287.506 320.992 286.671 321.186 286.504 321.297C286.365 321.408 285.419 321.602 284.418 321.713C283.416 321.824 282.443 322.046 282.248 322.212C281.664 322.684 276.044 322.628 275.07 322.129C273.707 321.463 273.29 320.964 273.123 319.855C273.012 319.273 272.817 318.718 272.706 318.635C272.372 318.441 272.372 316.666 272.706 316.472C272.817 316.389 273.012 315.64 273.123 314.78C273.206 313.948 273.54 312.811 273.874 312.257C274.18 311.702 274.375 311.175 274.291 311.092C274.208 311.036 274.514 310.482 274.959 309.927C275.432 309.345 275.794 308.762 275.794 308.624C275.794 308.18 276.6 306.683 277.045 306.322C277.268 306.128 277.463 305.795 277.463 305.546C277.463 305.324 278.214 304.27 279.132 303.244C280.05 302.218 280.801 301.247 280.801 301.081C280.801 300.915 281.636 299.861 282.693 298.779C283.722 297.67 284.696 296.505 284.863 296.2C285.03 295.895 285.419 295.507 285.725 295.368C286.031 295.202 287.979 293.483 290.065 291.541C292.124 289.6 293.904 288.02 293.988 288.02C294.099 288.02 294.906 287.382 295.796 286.633C296.686 285.856 297.493 285.246 297.604 285.246C297.744 285.246 298.272 284.858 298.801 284.414C299.301 283.943 299.858 283.583 300.025 283.583C300.192 283.583 300.887 283.111 301.611 282.529C303.029 281.392 303.502 281.114 306.813 279.423C308.037 278.785 309.233 278.175 309.456 278.036C309.678 277.898 311.014 277.288 312.377 276.65C313.768 276.012 315.242 275.319 315.66 275.097C316.105 274.875 316.578 274.709 316.745 274.709C317.023 274.709 318.136 274.265 319.888 273.461C320.361 273.239 321.112 272.989 321.557 272.878C322.03 272.767 322.531 272.601 322.67 272.49C322.837 272.379 323.394 272.185 323.922 272.074C324.451 271.963 325.035 271.769 325.174 271.658C325.341 271.547 326.036 271.353 326.76 271.27C327.483 271.159 328.151 270.965 328.234 270.826C328.318 270.688 329.069 270.493 329.903 270.41C330.766 270.299 331.517 270.105 331.573 269.994C331.656 269.856 332.407 269.661 333.242 269.578C334.104 269.467 334.855 269.273 334.911 269.162C334.994 269.024 336.052 268.83 337.276 268.719C338.5 268.635 339.501 268.441 339.501 268.33C339.501 268.219 341.727 268.025 344.453 267.914C347.152 267.831 349.628 267.637 349.934 267.498C350.24 267.36 351.547 267.193 352.827 267.082C354.135 266.999 355.331 266.805 355.47 266.694C355.637 266.556 357.39 266.389 359.337 266.306C361.312 266.223 363.065 266.029 363.232 265.89C363.426 265.751 365.123 265.557 366.987 265.474C368.879 265.391 370.576 265.197 370.743 265.03C370.938 264.892 371.912 264.698 372.969 264.587C373.998 264.476 374.888 264.282 374.972 264.171C375.055 264.06 375.973 263.866 377.058 263.755C378.143 263.644 379.061 263.45 379.145 263.339C379.228 263.228 380.146 263.034 381.231 262.923C382.316 262.812 383.262 262.618 383.346 262.479C383.429 262.34 383.846 262.229 384.291 262.229C384.737 262.229 385.182 262.091 385.265 261.952C385.349 261.814 385.655 261.675 385.933 261.675C386.211 261.675 386.601 261.481 386.795 261.259C386.962 261.065 387.713 260.787 388.409 260.704C389.132 260.621 389.911 260.427 390.134 260.316C390.384 260.177 390.968 259.983 391.441 259.9C391.914 259.789 392.387 259.512 392.471 259.29C392.554 259.068 392.916 258.902 393.249 258.902C394.557 258.874 394.919 258.292 394.891 256.101C394.891 254.992 394.752 254.021 394.613 253.938C394.474 253.855 394.279 252.995 394.168 252.024C394.056 251.082 393.862 250.25 393.75 250.166C393.639 250.083 393.444 249.168 393.333 248.087C393.222 247.005 393.027 246.09 392.916 246.007C392.777 245.924 392.582 244.87 392.471 243.65C392.387 242.429 392.192 241.431 392.081 241.431C391.97 241.431 391.775 240.488 391.664 239.351C391.552 238.214 391.386 237.271 391.246 237.271C391.135 237.271 390.94 236.273 390.857 235.053C390.746 233.833 390.551 232.779 390.44 232.696C390.301 232.64 390.106 231.559 390.022 230.339C389.911 229.118 389.716 228.065 389.605 227.981C389.466 227.926 389.271 226.955 389.16 225.846C389.076 224.737 388.882 223.683 388.743 223.544C388.631 223.378 388.437 222.324 388.325 221.187C388.242 220.05 388.047 218.969 387.908 218.83C387.797 218.664 387.63 217.554 387.519 216.334C387.407 215.114 387.213 214.005 387.101 213.838C386.962 213.7 386.767 212.674 386.656 211.62C386.545 210.538 386.378 209.54 386.239 209.401C386.128 209.235 385.933 208.154 385.822 206.989C385.71 205.796 385.516 204.77 385.404 204.687C385.265 204.604 385.07 203.55 384.959 202.33C384.876 201.11 384.681 200.112 384.57 200.112C384.431 200.112 384.264 199.169 384.152 198.032C384.041 196.895 383.846 195.952 383.735 195.952C383.624 195.952 383.429 195.009 383.318 193.872C383.206 192.735 383.04 191.792 382.9 191.792C382.789 191.792 382.594 190.849 382.483 189.712C382.372 188.575 382.205 187.632 382.066 187.632C381.955 187.632 381.76 186.856 381.649 185.885C381.537 184.943 381.343 184.027 381.231 183.889C381.12 183.722 380.925 182.835 380.814 181.864C380.703 180.921 380.536 180.145 380.397 180.145C380.285 180.145 380.118 179.452 380.035 178.592C379.952 177.76 379.757 176.9 379.59 176.734C379.451 176.54 379.228 175.708 379.117 174.876C379.006 174.044 378.839 173.212 378.727 173.074C378.616 172.907 378.421 172.131 378.31 171.354C378.199 170.55 378.004 169.829 377.865 169.746C377.754 169.663 377.559 168.969 377.448 168.193C377.336 167.444 377.142 166.751 377.03 166.668C376.891 166.584 376.78 166.252 376.78 165.919C376.78 165.586 376.585 164.948 376.363 164.532C376.14 164.089 375.89 163.118 375.779 162.369C375.667 161.621 375.473 160.927 375.361 160.844C375.222 160.761 375.111 160.484 375.111 160.206C375.111 159.929 374.916 159.319 374.694 158.903C374.471 158.459 374.276 157.821 374.276 157.489C374.276 157.156 374.165 156.795 373.998 156.712C373.859 156.629 373.72 156.213 373.72 155.797C373.72 155.381 373.553 154.799 373.33 154.494C373.136 154.189 372.885 153.357 372.774 152.636C372.663 151.915 372.468 151.249 372.357 151.166C372.218 151.11 372.023 150.473 371.939 149.779C371.828 149.114 371.633 148.476 371.494 148.393C371.355 148.31 371.16 147.672 371.049 147.006C370.966 146.313 370.771 145.758 370.66 145.758C370.548 145.758 370.354 145.01 370.242 144.094C370.131 143.179 369.936 142.431 369.825 142.431C369.686 142.431 369.491 142.015 369.408 141.515C369.296 141.044 369.102 140.489 368.99 140.351C368.851 140.184 368.684 139.491 368.573 138.742C368.462 138.021 368.267 137.439 368.128 137.439C368.017 137.439 367.822 136.857 367.711 136.108C367.627 135.387 367.433 134.666 367.321 134.527C367.182 134.361 367.015 133.778 366.904 133.196C366.793 132.641 366.598 132.087 366.459 132.004C366.32 131.92 366.208 131.588 366.208 131.255C366.208 130.922 366.014 130.312 365.819 129.896C365.596 129.452 365.318 128.565 365.207 127.872C365.123 127.178 364.929 126.624 364.79 126.624C364.678 126.624 364.484 126.069 364.372 125.376C364.289 124.683 364.094 124.128 363.983 124.128C363.872 124.128 363.677 123.573 363.593 122.88C363.482 122.187 363.287 121.632 363.176 121.632C363.037 121.632 362.842 121.078 362.759 120.384C362.648 119.719 362.453 119.081 362.314 118.998C362.202 118.914 362.008 118.36 361.896 117.75C361.785 117.14 361.59 116.585 361.451 116.474C361.312 116.391 361.201 116.058 361.201 115.725C361.201 115.393 361.006 114.755 360.784 114.339C360.561 113.923 360.311 113.119 360.199 112.564C360.088 112.009 359.838 111.233 359.643 110.845C359.42 110.456 359.253 109.93 359.253 109.68C359.253 109.43 359.059 108.848 358.836 108.432C358.614 107.988 358.419 107.351 358.419 107.018C358.419 106.685 358.308 106.324 358.141 106.241C358.002 106.158 357.862 105.853 357.862 105.603C357.862 105.354 357.668 104.772 357.445 104.328C357.223 103.912 357.028 103.33 357.028 103.08C357.028 102.83 356.833 102.276 356.611 101.832C356.388 101.416 356.193 100.834 356.193 100.584C356.193 100.335 356.026 99.8076 355.804 99.3917C355.581 99.0034 355.331 98.1438 355.22 97.5337C355.108 96.8959 354.941 96.3412 354.802 96.2581C354.691 96.1749 354.496 95.7034 354.413 95.1765C354.302 94.6219 354.051 93.8454 353.829 93.4295C353.606 93.0135 353.411 92.4589 353.411 92.2093C353.411 91.9597 353.217 91.3773 352.994 90.9614C352.771 90.5177 352.577 89.9631 352.577 89.7135C352.577 89.4639 352.382 88.8815 352.159 88.4656C351.937 88.0219 351.742 87.4395 351.742 87.1899C351.742 86.9403 351.631 86.663 351.492 86.5798C351.353 86.4966 351.158 85.9698 351.047 85.3874C350.935 84.8328 350.685 84.1118 350.462 83.8067C350.24 83.5017 350.073 82.9193 350.073 82.5311C350.073 82.1429 349.878 81.5882 349.656 81.3109C349.433 81.0059 349.238 80.479 349.238 80.1185C349.238 79.758 349.127 79.4806 348.96 79.4806C348.821 79.4806 348.682 79.2588 348.682 78.9815C348.682 78.7319 348.515 78.1773 348.292 77.7613C348.07 77.3453 347.819 76.5966 347.708 76.0974C347.597 75.5983 347.319 74.9327 347.124 74.6277C346.901 74.3226 346.734 73.7957 346.734 73.463C346.734 73.1025 346.623 72.8252 346.456 72.8252C346.317 72.8252 346.178 72.6033 346.178 72.326C346.178 72.0764 346.011 71.5218 345.789 71.1058C345.566 70.6898 345.316 69.9966 345.204 69.5251C345.093 69.0537 344.926 68.6654 344.787 68.6654C344.648 68.6654 344.481 68.2772 344.37 67.8335C344.259 67.3621 344.064 67.0016 343.925 67.0016C343.786 67.0016 343.674 66.7243 343.674 66.3915C343.674 65.7814 343.507 65.5318 341.922 63.9511C340.586 62.62 340.225 62.3427 339.418 62.1486C339.028 62.0377 338.639 61.7881 338.555 61.5663C338.472 61.3444 338.11 61.178 337.721 61.178C337.359 61.178 336.998 60.9839 336.886 60.7621C336.803 60.5402 336.413 60.3461 336.024 60.3461C335.634 60.3461 335.328 60.2074 335.328 60.0688C335.328 59.9024 335.078 59.7915 334.8 59.7915C334.494 59.7915 334.076 59.5973 333.854 59.3755C333.631 59.1536 332.936 58.9041 332.296 58.7932C331.656 58.6822 331.155 58.5158 331.155 58.3772C331.155 58.2662 330.71 58.0721 330.182 57.9612C329.653 57.878 329.124 57.6839 329.041 57.5453C328.958 57.4066 328.512 57.2956 328.039 57.2956C327.567 57.2956 326.954 57.1015 326.676 56.8519C326.398 56.6024 325.563 56.3251 324.84 56.2696C324.117 56.1864 323.366 56.02 323.227 55.8814C323.06 55.7705 321.975 55.5763 320.778 55.4654C319.582 55.3545 318.553 55.1881 318.497 55.0494C318.414 54.9385 317.218 54.7444 315.854 54.6334C314.463 54.5502 313.267 54.3284 313.184 54.2175C312.989 53.8847 311.96 53.9124 311.96 54.2452C311.96 54.3839 311.347 54.5225 310.596 54.5225C309.817 54.5225 309.122 54.3839 309.038 54.2452C308.816 53.9124 307.592 53.8847 307.397 54.2175C307.314 54.3284 306.201 54.5503 304.949 54.6612C303.669 54.7721 302.501 54.9662 302.334 55.1049C302.167 55.2435 301.36 55.3822 300.526 55.3822C299.691 55.4099 298.745 55.6041 298.411 55.8259C298.077 56.02 297.604 56.1864 297.382 56.1864C296.853 56.1864 295.657 57.7394 295.407 58.7377C295.295 59.1537 295.045 59.5419 294.822 59.6251C294.6 59.7083 294.433 60.0965 294.433 60.4847C294.433 60.873 294.322 61.178 294.183 61.178C294.043 61.178 293.849 61.594 293.765 62.1209C293.654 62.6478 293.404 63.2024 293.181 63.3965C292.958 63.5906 292.764 63.9789 292.764 64.2562C292.764 64.5335 292.652 64.8108 292.513 64.894C292.374 64.9772 292.18 65.5041 292.096 66.031C291.985 66.5579 291.79 67.0016 291.651 67.0016C291.54 67.0016 291.345 67.3621 291.234 67.8335C291.122 68.2772 290.928 68.6654 290.789 68.6654C290.649 68.6654 290.538 68.8873 290.538 69.1369C290.538 69.4142 290.371 69.9688 290.149 70.3848C289.926 70.8008 289.676 71.4941 289.592 71.91C289.481 72.3537 289.036 73.463 288.591 74.3781C288.118 75.2655 287.756 76.2361 287.756 76.4857C287.756 76.763 287.645 76.9848 287.506 76.9848C287.367 76.9848 287.172 77.3731 287.061 77.8168C286.949 78.2882 286.504 79.3697 286.059 80.2571C285.614 81.1168 285.252 82.0596 285.252 82.3092C285.252 82.5865 285.141 82.8084 284.974 82.8084C284.835 82.8084 284.696 83.0857 284.696 83.4462C284.696 83.779 284.529 84.3059 284.306 84.6109C284.112 84.916 283.834 85.5815 283.722 86.053C283.639 86.5521 283.444 86.9681 283.305 86.9681C283.166 86.9681 282.999 87.3286 282.888 87.8C282.776 88.2437 282.609 88.6319 282.47 88.6319C282.359 88.6319 282.164 89.1866 282.081 89.8798C281.97 90.5731 281.775 91.1278 281.636 91.1278C281.497 91.1278 281.302 91.516 281.218 92.0152C281.107 92.4866 280.718 93.4295 280.384 94.095C280.022 94.7328 279.661 95.6479 279.549 96.1194C279.438 96.5631 279.243 96.9513 279.104 96.9513C278.965 96.9513 278.854 97.2286 278.854 97.5891C278.854 97.9219 278.687 98.4488 278.464 98.7539C278.27 99.0589 277.991 99.7245 277.88 100.224C277.769 100.723 277.518 101.472 277.296 101.887C277.073 102.303 276.906 102.775 276.906 102.969C276.906 103.135 276.739 103.635 276.517 104.078C275.682 105.742 274.709 107.933 274.542 108.598C274.43 108.987 274.236 109.403 274.124 109.569C274.013 109.708 273.846 110.207 273.735 110.678C273.624 111.122 273.373 111.871 273.151 112.342C272.344 114.117 271.899 115.198 271.899 115.504C271.899 115.67 271.787 116.03 271.648 116.308C270.925 117.805 270.508 118.804 270.341 119.525C270.23 119.968 269.979 120.662 269.784 121.05C269.562 121.438 269.395 121.937 269.395 122.131C269.395 122.325 269.284 122.686 269.145 122.963C269.033 123.213 268.699 123.934 268.421 124.544C268.171 125.154 267.837 125.875 267.698 126.125C267.559 126.402 267.448 126.762 267.448 126.957C267.448 127.151 267.281 127.65 267.058 128.066C266.836 128.482 266.585 129.23 266.474 129.73C266.363 130.229 266.168 130.756 266.057 130.922C265.945 131.061 265.751 131.615 265.639 132.087C265.556 132.586 265.361 133.002 265.222 133.002C265.083 133.002 264.888 133.557 264.777 134.25C264.693 134.943 264.499 135.498 264.36 135.498C264.248 135.498 264.054 136.052 263.942 136.746C263.859 137.439 263.664 137.994 263.553 137.994C263.414 137.994 263.219 138.41 263.135 138.881C263.024 139.38 262.829 139.907 262.718 140.073C262.607 140.212 262.412 140.767 262.301 141.238C262.217 141.737 262.023 142.153 261.884 142.153C261.745 142.153 261.55 142.708 261.438 143.401C261.355 144.094 261.16 144.649 261.049 144.649C260.91 144.649 260.715 145.065 260.632 145.536C260.52 146.036 260.242 146.701 260.047 147.006C259.825 147.311 259.658 147.838 259.658 148.171C259.658 148.531 259.547 148.809 259.38 148.809C259.241 148.809 259.102 149.031 259.102 149.28C259.102 149.557 258.935 150.112 258.712 150.528C258.49 150.944 258.239 151.637 258.128 152.109C258.017 152.58 257.85 152.968 257.711 152.968C257.571 152.968 257.377 153.523 257.265 154.216C257.182 154.91 256.987 155.464 256.876 155.464C256.765 155.464 256.57 156.019 256.487 156.712C256.375 157.405 256.181 157.96 256.069 157.96C255.93 157.96 255.735 158.515 255.652 159.208C255.541 159.901 255.346 160.456 255.207 160.456C255.068 160.456 254.873 160.872 254.79 161.343C254.678 161.842 254.483 162.369 254.372 162.536C254.261 162.674 254.066 163.229 253.955 163.7C253.871 164.2 253.677 164.616 253.538 164.616C253.426 164.616 253.259 165.115 253.148 165.697C253.065 166.307 252.786 167.195 252.508 167.721C251.674 169.358 251.59 169.607 251.59 169.94C251.59 170.134 251.423 170.633 251.201 171.021C251.006 171.41 250.756 172.103 250.644 172.547C250.477 173.268 250.06 174.266 249.337 175.763C249.198 176.041 249.086 176.401 249.086 176.595C249.086 176.79 248.919 177.289 248.697 177.705C248.474 178.121 248.224 178.842 248.113 179.341C248.001 179.868 247.807 180.45 247.695 180.7C246.861 182.447 246.583 183.168 246.416 183.889C246.304 184.332 246.137 184.832 246.026 184.998C245.887 185.137 245.72 185.747 245.609 186.329C245.498 186.884 245.303 187.411 245.192 187.494C245.053 187.577 244.886 188.132 244.774 188.742C244.663 189.352 244.468 189.906 244.329 190.017C244.19 190.101 244.079 190.378 244.079 190.627C244.079 190.877 243.912 191.432 243.689 191.82C243.495 192.208 243.244 192.901 243.133 193.345C242.966 194.066 242.549 195.064 241.825 196.562C241.686 196.839 241.575 197.2 241.575 197.394C241.575 197.588 241.408 198.087 241.186 198.503C240.963 198.919 240.713 199.668 240.601 200.167C240.49 200.666 240.212 201.332 240.017 201.637C239.795 201.942 239.628 202.469 239.628 202.801C239.628 203.162 239.516 203.439 239.377 203.439C239.21 203.439 239.016 203.994 238.904 204.687C238.821 205.38 238.626 205.935 238.515 205.935C238.376 205.935 238.181 206.351 238.098 206.822C237.986 207.322 237.764 207.904 237.625 208.07C237.43 208.32 237.43 208.431 237.625 208.431C237.819 208.431 237.764 208.708 237.513 209.18C237.319 209.623 237.124 210.178 237.124 210.428C237.124 210.705 237.013 210.927 236.873 210.927C236.734 210.927 236.54 211.481 236.456 212.175C236.345 212.868 236.15 213.423 236.011 213.423C235.872 213.423 235.677 213.838 235.594 214.31C235.482 214.809 235.288 215.336 235.176 215.502C235.065 215.641 234.87 216.196 234.759 216.667C234.676 217.166 234.481 217.582 234.342 217.582C234.231 217.582 234.036 218.137 233.952 218.83C233.841 219.523 233.646 220.078 233.479 220.078C233.34 220.078 233.229 220.355 233.229 220.716C233.229 221.049 233.062 221.575 232.84 221.881C232.645 222.186 232.367 222.879 232.255 223.406C232.144 223.933 231.949 224.487 231.838 224.654C231.727 224.792 231.532 225.347 231.421 225.818C231.337 226.318 231.143 226.733 231.003 226.733C230.892 226.733 230.697 227.288 230.614 227.981C230.503 228.675 230.308 229.229 230.197 229.229C230.058 229.229 229.891 229.756 229.807 230.422C229.724 231.087 229.446 231.975 229.223 232.418C228.973 232.89 228.778 233.472 228.778 233.722C228.778 233.971 228.667 234.249 228.527 234.332C228.416 234.415 228.221 234.886 228.11 235.386C227.971 236.19 227.637 236.994 226.803 238.713C226.664 238.991 226.552 239.351 226.552 239.545C226.552 239.739 226.385 240.239 226.163 240.655C225.94 241.071 225.69 241.819 225.579 242.318C225.467 242.818 225.161 243.539 224.883 243.927C224.633 244.315 224.327 245.147 224.215 245.785C224.132 246.423 223.882 247.282 223.659 247.726C222.908 249.14 222.379 250.527 222.379 250.943C222.379 251.192 222.268 251.442 222.129 251.525C221.934 251.664 221.6 252.69 221.406 253.771C221.378 253.91 221.211 254.409 221.044 254.825C220.849 255.269 220.71 255.713 220.71 255.851C220.71 255.99 220.487 256.489 220.237 257.016C219.403 258.652 219.319 258.902 219.319 259.235C219.319 259.429 219.152 259.928 218.93 260.316C218.735 260.704 218.484 261.481 218.373 262.035C218.262 262.59 218.012 263.394 217.789 263.81C217.566 264.226 217.372 264.808 217.372 265.058C217.372 265.308 217.26 265.585 217.121 265.668C216.982 265.751 216.787 266.278 216.704 266.805C216.593 267.332 216.398 267.776 216.259 267.776C216.092 267.776 215.981 268.025 215.981 268.358V268.913L197.147 268.719C185.407 268.608 178.146 268.441 177.951 268.247C177.7 268.081 177.45 268.081 177.2 268.303C176.921 268.524 176.755 268.552 176.615 268.33C176.393 267.97 166.851 267.942 166.6 268.33C166.322 268.774 153.469 268.691 153.219 268.275C153.08 268.081 152.941 266.805 152.885 265.419C152.829 264.06 152.662 262.812 152.523 262.673C152.162 262.285 152.217 256.766 152.551 256.545C152.774 256.406 152.746 256.24 152.523 255.962C152.301 255.713 152.301 255.463 152.495 255.213C152.662 255.019 152.829 247.643 152.968 235.192C153.08 224.349 153.247 215.364 153.386 215.225C153.497 215.059 153.664 210.095 153.775 204.133C153.886 198.198 154.081 193.206 154.193 193.04C154.332 192.901 154.526 189.768 154.638 186.107C154.749 182.447 154.916 179.313 155.055 179.174C155.166 179.008 155.361 176.595 155.472 173.767C155.584 170.938 155.75 168.498 155.89 168.359C156.001 168.193 156.196 166.085 156.279 163.645C156.39 161.205 156.585 159.097 156.724 158.931C156.835 158.792 157.03 156.74 157.141 154.383C157.253 152.026 157.447 149.89 157.587 149.668C157.698 149.419 157.893 147.644 158.004 145.675C158.087 143.734 158.282 142.153 158.421 142.153C158.56 142.153 158.672 141.099 158.672 139.824C158.672 138.52 158.783 137.411 158.922 137.328C159.061 137.245 159.256 135.47 159.367 133.418C159.478 131.366 159.673 129.619 159.784 129.536C159.896 129.452 160.09 127.678 160.202 125.598C160.313 123.49 160.508 121.632 160.619 121.493C160.73 121.327 160.925 119.33 161.036 117.056C161.147 114.755 161.342 112.841 161.481 112.758C161.593 112.675 161.787 110.567 161.899 108.099C162.01 105.631 162.177 103.607 162.288 103.607C162.399 103.607 162.566 101.721 162.678 99.3917C162.789 96.8958 162.984 95.0379 163.178 94.7883C163.429 94.511 163.401 94.3446 163.095 94.1782C162.789 93.9563 162.761 93.8177 163.039 93.374C163.262 93.0412 163.457 91.1555 163.568 88.5765C163.651 86.2471 163.846 84.1949 163.957 84.0563C164.096 83.8899 164.263 81.5327 164.375 78.8151C164.486 76.0697 164.708 73.6016 164.875 73.352C165.098 72.9915 165.098 72.7697 164.848 72.4924C164.653 72.2428 164.625 71.9932 164.764 71.8268C164.903 71.6881 165.098 69.331 165.209 66.5856C165.32 63.8402 165.515 61.5385 165.627 61.4553C165.738 61.3722 165.905 60.041 165.96 58.4604C166.072 56.1309 166.016 55.6318 165.682 55.6318C165.487 55.6318 165.237 55.3822 165.154 55.0772C165.07 54.7721 164.848 54.5225 164.653 54.5225C164.458 54.5225 163.93 54.1343 163.484 53.6906C163.067 53.2192 162.566 52.8587 162.372 52.8587C162.205 52.8587 161.954 52.6091 161.871 52.2763C161.76 51.9712 161.287 51.5276 160.786 51.3334C160.285 51.1116 159.701 50.7511 159.506 50.5015C159.284 50.2519 158.588 49.7805 157.92 49.4754C157.253 49.1704 156.585 48.6713 156.418 48.3939C156.279 48.0889 155.973 47.867 155.75 47.867C155.528 47.867 155.333 47.7284 155.333 47.5897C155.333 47.4234 155.138 47.3124 154.916 47.3124C154.248 47.3124 152.273 46.3696 152.273 46.0645C152.273 45.7595 149.741 44.5393 149.074 44.5393C148.851 44.5393 148.656 44.4284 148.656 44.2897C148.656 44.151 148.295 43.9569 147.822 43.846C147.377 43.7351 146.987 43.541 146.987 43.4023C146.987 43.2637 146.709 43.1527 146.347 43.1527C146.013 43.1527 145.485 42.9863 145.179 42.7645C144.873 42.5704 144.205 42.2931 143.732 42.1821C143.231 42.0989 142.814 41.8771 142.814 41.7384C142.814 41.5998 142.536 41.4889 142.174 41.4889C141.813 41.4889 141.284 41.2947 140.978 41.0729C140.338 40.5737 139.42 40.546 138.975 40.9897C138.752 41.2115 138.641 41.2393 138.641 41.0174C138.641 40.851 138.224 40.6014 137.751 40.5183C137.25 40.4073 136.694 40.2132 136.555 40.1023C136.388 39.9636 134.719 39.7973 132.799 39.6863C130.879 39.5754 129.182 39.3813 128.988 39.2426C128.793 39.0485 128.626 39.0762 128.487 39.2704C128.264 39.6309 127.04 39.6309 126.818 39.2704C126.595 38.9098 126.206 38.9098 125.983 39.2704Z" fill="#6C6254"/>
</svg>
