<svg width="611" height="891" viewBox="0 0 611 891" fill="none" xmlns="http://www.w3.org/2000/svg">
<path d="M36.9955 0.553792C36.7665 0.894599 36.137 1.00818 35.6219 0.83778C34.7634 0.610575 34.4773 0.951429 34.1911 2.65547C34.0194 3.84829 33.8477 6.00673 33.8477 7.48356C33.8477 8.96039 33.6188 10.2668 33.3326 10.4372C33.0464 10.6076 32.6458 16.0606 32.4169 22.5359C32.188 29.068 31.7873 34.5777 31.5584 34.9185C31.3295 35.2025 30.9288 40.0875 30.6999 45.7108C30.5282 51.3341 30.0704 56.2758 29.727 56.6166C29.3263 57.1278 29.3263 57.5822 29.8414 58.207C30.2421 58.6614 30.2993 59.059 29.9559 59.059C29.6125 59.059 29.2119 62.8079 28.9829 68.4312C28.754 73.6002 28.4106 77.8035 28.1245 77.8035C27.8955 77.8035 27.5521 80.8707 27.3804 84.6764C27.2087 88.4253 26.8081 91.8333 26.522 92.1741C26.2358 92.5717 25.7779 96.3206 25.549 100.524C25.3201 104.727 24.9194 108.476 24.6333 108.817C24.3471 109.158 23.9465 112.225 23.7748 115.633C23.5459 119.041 23.2025 122.108 22.9163 122.449C22.6302 122.733 22.2868 125.573 22.0578 128.697C21.8289 131.765 21.4855 134.605 21.1994 134.889C20.9704 135.229 20.5698 138.41 20.3409 141.989C20.1119 145.567 19.7685 148.635 19.4824 148.805C19.2535 148.975 18.8528 152.043 18.6239 155.621C18.395 159.2 17.9943 162.267 17.7654 162.437C17.4792 162.664 17.0786 165.789 16.9069 169.424C16.678 173.059 16.3346 176.07 16.0484 176.07C15.8195 176.07 15.4761 179.137 15.2472 182.886C15.0183 186.635 14.6176 189.702 14.3887 189.702C14.1598 189.702 13.8164 192.826 13.5875 196.632C13.3585 200.494 12.9579 203.845 12.6717 204.186C12.4428 204.47 12.0422 207.992 11.8132 212.025C11.5843 216.001 11.1837 219.352 10.9548 219.522C10.7258 219.693 10.3252 223.101 10.0963 227.191C9.86735 231.28 9.46672 234.688 9.2378 234.859C9.00887 235.029 8.60824 239.005 8.37931 243.777C8.15038 248.548 7.74975 252.694 7.52083 253.035C7.2919 253.319 6.89127 258.034 6.66234 263.43C6.43341 268.826 6.03279 273.313 5.80386 273.484C5.57493 273.654 5.1743 279.164 4.94537 285.81C4.71644 292.455 4.31582 298.135 4.08689 298.476C3.80073 298.76 3.45733 306.201 3.2284 314.949C2.99947 323.696 2.59885 331.137 2.31268 331.421C2.08376 331.762 1.68313 346.473 1.4542 364.082C1.22527 381.747 0.881877 396.458 0.595715 396.799C-0.148305 397.708 -0.205537 473.538 0.481251 474.39C0.824645 474.787 1.2825 476.15 1.4542 477.343C1.79759 478.99 2.65608 480.297 4.94537 482.512C8.03592 485.523 9.86735 486.204 15.19 486.204C16.2201 486.204 17.2503 486.431 17.5365 486.715C17.8799 487.056 53.8218 487.397 109.051 487.567C169.603 487.795 200.222 488.079 200.623 488.476C201.367 489.215 222.543 489.271 223 488.476C223.172 488.135 225.748 487.908 228.724 487.908C231.7 487.908 234.275 488.135 234.447 488.476C234.905 489.158 237.423 489.215 237.824 488.59C237.995 488.306 245.493 487.965 254.536 487.738C263.979 487.567 271.076 487.227 271.305 486.886C271.476 486.602 275.368 486.204 279.947 485.977C284.525 485.75 288.303 485.295 288.417 485.068C288.532 484.784 289.504 484.387 290.592 484.159C291.679 483.989 292.709 483.591 292.881 483.307C293.053 483.023 294.655 482.796 296.43 482.796C298.318 482.796 300.207 482.455 300.836 482.001C301.466 481.603 302.84 481.035 303.87 480.808C304.843 480.638 305.701 480.183 305.701 479.899C305.701 479.615 306.102 479.388 306.56 479.388C307.075 479.388 307.933 478.65 308.448 477.684C308.963 476.775 309.593 475.98 309.879 475.98C310.108 475.98 310.28 475.526 310.28 474.958C310.28 474.446 310.623 473.31 311.081 472.458C311.539 471.606 312.054 470.073 312.283 469.05C312.512 468.028 313.084 466.665 313.485 466.04C313.943 465.415 314.286 464.336 314.286 463.654C314.286 462.916 314.572 462.348 314.858 462.348C315.202 462.348 315.431 461.893 315.431 461.325C315.431 460.814 315.774 459.678 316.232 458.826C316.69 457.974 317.205 456.554 317.434 455.588C317.663 454.623 318.063 453.828 318.407 453.828C318.75 453.828 318.75 453.487 318.292 452.975C317.834 452.464 317.834 452.123 318.178 452.123C318.521 452.123 318.979 451.271 319.151 450.306C319.38 449.283 319.78 448.147 320.009 447.863C320.238 447.523 320.639 446.443 320.868 445.421C321.039 444.455 321.497 443.603 321.783 443.603C322.07 443.603 322.299 443.035 322.299 442.297C322.299 441.615 322.699 440.422 323.214 439.741C323.672 439.059 323.844 438.491 323.5 438.491C323.214 438.491 323.329 437.81 323.787 436.901C324.187 436.049 324.588 434.913 324.588 434.345C324.588 433.833 324.817 433.379 325.103 433.379C325.389 433.379 325.847 432.527 326.019 431.505C326.248 430.539 326.648 429.403 326.877 429.119C327.106 428.778 327.507 427.699 327.736 426.677C327.907 425.711 328.365 424.859 328.709 424.859C329.052 424.859 329.052 424.518 328.594 424.007C328.136 423.496 328.136 423.155 328.48 423.155C328.823 423.155 329.224 422.36 329.453 421.394C329.682 420.428 330.197 419.008 330.655 418.156C331.112 417.304 331.456 416.282 331.456 415.884C331.456 415.203 331.627 414.691 333.344 411.34C333.859 410.261 334.317 409.182 334.317 408.841C334.317 408.216 335.634 405.092 336.95 402.536C337.408 401.627 337.751 400.662 337.751 400.321C337.751 399.753 338.896 396.969 340.384 393.845C340.899 392.88 341.357 391.46 341.414 390.721C341.529 389.983 342.044 388.563 342.559 387.654C343.074 386.688 343.475 385.666 343.475 385.268C343.475 384.928 343.818 383.905 344.276 382.996C345.535 380.611 346.908 377.316 346.908 376.805C346.908 376.351 348.74 372.318 350.686 368.455C351.144 367.546 351.487 366.581 351.487 366.24C351.487 365.615 352.803 362.491 354.12 359.935C354.578 359.026 354.921 358.061 354.921 357.72C354.921 357.152 355.779 354.993 357.84 350.676C358.412 349.37 358.927 348.007 358.927 347.552C358.927 347.098 359.328 346.246 359.786 345.678C360.244 345.053 360.644 343.974 360.644 343.236C360.644 342.497 360.873 341.475 361.217 340.907C362.189 339.146 364.078 334.602 364.078 333.977C364.078 333.693 364.307 332.955 364.65 332.386C365.623 330.626 367.512 326.082 367.512 325.457C367.512 325.173 367.741 324.434 368.084 323.866C369 322.276 370.946 317.618 370.946 317.107C370.946 316.255 372.377 313.528 372.777 313.528C373.006 313.528 373.35 312.392 373.579 310.972C373.75 309.552 374.151 308.416 374.437 308.416C374.723 308.416 374.952 307.962 374.952 307.394C374.952 306.883 375.296 305.747 375.754 304.895C376.211 304.043 376.727 302.623 376.955 301.657C377.184 300.691 377.585 299.896 377.871 299.896C378.157 299.896 378.386 299.442 378.386 298.874C378.386 298.363 378.73 297.227 379.188 296.375C379.645 295.522 380.16 294.102 380.389 293.137C380.618 292.171 381.019 291.376 381.305 291.376C381.591 291.376 381.82 290.922 381.82 290.354C381.82 289.842 382.221 288.65 382.679 287.741C383.137 286.889 383.537 285.866 383.537 285.469C383.537 285.128 383.881 284.162 384.338 283.31C384.796 282.458 385.311 280.925 385.54 279.902C385.769 278.88 386.17 277.744 386.399 277.46C386.628 277.119 386.971 276.096 387.2 275.188C387.429 274.222 387.944 272.688 388.402 271.78C390.004 268.258 390.977 265.929 390.977 265.361C390.977 265.077 391.607 263.714 392.294 262.351C393.038 260.987 393.839 259.056 394.068 258.147C394.411 256.67 394.984 255.194 396.701 251.615C396.93 251.104 397.33 249.911 397.559 248.832C397.788 247.809 398.303 246.333 398.761 245.481C399.219 244.629 399.562 243.606 399.562 243.209C399.562 242.527 399.734 242.016 401.451 238.664C401.966 237.585 402.424 236.506 402.424 236.165C402.424 235.597 403.34 233.325 404.999 229.747C405.457 228.781 405.972 227.304 406.201 226.395C406.43 225.487 406.945 224.067 407.346 223.271C407.804 222.476 408.147 221.51 408.147 221.113C408.147 220.772 408.605 219.636 409.12 218.557C410.78 215.262 410.894 214.865 411.295 212.763C411.524 211.627 411.924 210.548 412.211 210.378C412.497 210.207 412.726 209.639 412.726 209.128C412.726 208.617 413.069 207.481 413.527 206.629C413.985 205.777 414.5 204.357 414.729 203.391C414.958 202.425 415.358 201.63 415.644 201.63C415.931 201.63 416.16 201.176 416.16 200.608C416.16 200.096 416.503 198.96 416.961 198.108C417.419 197.256 417.934 195.836 418.163 194.871C418.392 193.905 418.735 193.11 419.021 193.11C419.307 193.11 419.708 191.974 419.937 190.554C420.109 189.134 420.509 187.998 420.738 187.998C421.024 187.998 421.425 187.146 421.597 186.123C421.826 185.158 422.398 183.795 422.799 183.17C423.256 182.545 423.6 181.466 423.6 180.784C423.6 180.046 423.829 179.478 424.115 179.478C424.401 179.478 424.802 178.682 425.031 177.717C425.26 176.751 425.775 175.331 426.232 174.479C426.69 173.627 427.034 172.491 427.034 171.923C427.034 171.412 427.32 170.957 427.606 170.957C427.949 170.957 428.178 170.389 428.178 169.651C428.178 168.969 428.522 167.89 428.98 167.265C429.38 166.641 429.953 165.277 430.181 164.255C430.41 163.232 430.925 161.699 431.383 160.847C431.841 159.995 432.185 158.859 432.185 158.291C432.185 157.78 432.471 157.325 432.757 157.325C433.1 157.325 433.329 156.984 433.329 156.53C433.329 156.132 433.73 155.451 434.188 155.053C434.932 154.428 435.046 154.599 435.046 155.848C435.046 156.644 435.275 157.325 435.561 157.325C435.79 157.325 436.191 158.518 436.42 159.938C436.592 161.415 437.049 162.948 437.393 163.403C437.793 163.801 438.137 164.937 438.251 165.959C438.366 166.925 438.709 168.004 438.995 168.345C439.281 168.685 439.682 169.992 439.911 171.241C440.254 173.457 440.598 174.479 442.2 178.058C442.658 178.966 443.173 180.898 443.402 182.318C443.574 183.738 443.974 185.101 444.203 185.442C444.604 185.953 445.52 189.134 445.691 190.554C445.691 190.838 446.035 191.86 446.493 192.826C447.981 196.291 448.152 196.859 448.553 199.358C448.725 200.778 449.125 202.141 449.354 202.482C449.755 202.993 450.728 206.345 450.785 207.594C450.842 207.878 451.129 208.73 451.529 209.412C451.93 210.093 452.216 211.4 452.216 212.252C452.216 213.161 452.445 214.126 452.788 214.467C453.074 214.751 453.475 216.114 453.647 217.534C453.818 218.898 454.219 220.318 454.448 220.602C454.734 220.942 455.135 222.476 455.364 224.067C455.593 225.6 455.993 227.134 456.222 227.475C456.508 227.759 456.852 229.065 457.081 230.315C457.31 231.564 457.71 232.814 457.939 233.155C458.225 233.439 458.569 235.256 458.798 237.131C459.027 239.005 459.427 240.766 459.656 241.107C459.942 241.391 460.286 242.925 460.515 244.515C460.744 246.049 461.144 247.582 461.373 247.923C461.602 248.207 462.003 250.025 462.232 251.899C462.461 253.774 462.861 255.421 463.09 255.591C463.376 255.762 463.777 257.693 463.949 259.851C464.178 262.067 464.578 263.941 464.807 264.111C465.093 264.282 465.494 266.213 465.723 268.372C465.952 270.587 466.352 272.461 466.581 272.632C466.867 272.802 467.211 274.79 467.44 277.062C467.669 279.334 468.012 281.152 468.241 281.152C468.47 281.152 468.871 283.197 469.042 285.696C469.271 288.195 469.672 290.354 469.958 290.524C470.244 290.694 470.645 292.853 470.874 295.352C471.045 297.851 471.446 299.896 471.675 299.896C471.904 299.896 472.304 302.225 472.533 305.008C472.762 307.848 473.163 310.234 473.392 310.404C473.678 310.575 474.021 312.847 474.25 315.517C474.479 318.186 474.88 320.458 475.109 320.629C475.338 320.799 475.738 323.014 475.967 325.57C476.196 328.183 476.597 330.512 476.826 330.853C477.055 331.137 477.455 333.92 477.684 336.931C477.913 339.998 478.314 342.611 478.543 342.781C478.829 342.952 479.172 344.996 479.401 347.325C479.63 349.711 480.031 351.699 480.26 351.869C480.546 352.04 480.889 354.823 481.118 358.117C481.347 361.412 481.748 364.082 481.977 364.082C482.206 364.082 482.606 366.354 482.835 369.194C483.064 371.977 483.465 374.306 483.694 374.306C483.923 374.306 484.323 376.578 484.552 379.418C484.781 382.258 485.182 384.53 485.411 384.53C485.64 384.53 486.04 386.802 486.269 389.642C486.498 392.425 486.899 394.754 487.128 394.754C487.357 394.754 487.757 396.799 487.986 399.298C488.215 401.798 488.616 403.956 488.845 404.126C489.074 404.297 489.474 406.569 489.703 409.239C489.932 411.908 490.333 414.18 490.562 414.351C490.848 414.521 491.191 416.623 491.42 419.065C491.649 421.451 492.05 423.666 492.279 424.007C492.508 424.291 492.908 426.222 493.137 428.267C493.366 430.312 493.767 432.186 493.996 432.527C494.224 432.811 494.625 434.742 494.854 436.787C495.083 438.832 495.484 440.706 495.713 441.047C495.941 441.331 496.342 443.262 496.571 445.307C496.8 447.352 497.258 449.34 497.544 449.681C498.002 450.249 497.544 450.419 495.541 450.419C494.11 450.419 492.794 450.647 492.622 450.931C492.45 451.158 489.989 451.612 487.128 451.783C484.323 452.01 481.862 452.407 481.691 452.691C481.576 452.919 479.23 453.316 476.54 453.543C473.85 453.771 471.56 454.112 471.389 454.396C471.217 454.623 469.328 455.02 467.096 455.248C464.864 455.475 462.976 455.872 462.804 456.1C462.632 456.384 460.572 456.724 458.225 456.952C455.879 457.179 453.933 457.576 453.933 457.804C453.933 458.088 451.987 458.428 449.64 458.656C447.294 458.883 445.348 459.28 445.348 459.508C445.348 459.792 443.402 460.132 441.056 460.36C438.709 460.587 436.763 460.984 436.763 461.212C436.763 461.496 435.103 461.893 433.043 462.064C430.983 462.291 429.151 462.688 429.037 462.916C428.865 463.2 427.091 463.597 425.031 463.768C422.97 463.995 421.31 464.393 421.31 464.62C421.31 464.904 419.765 465.245 417.877 465.472C415.988 465.699 414.443 466.04 414.443 466.324C414.443 466.551 413.183 466.892 411.581 467.119C410.036 467.346 408.605 467.687 408.49 467.971C408.319 468.255 406.888 468.596 405.285 468.823C403.74 469.05 402.424 469.391 402.424 469.675C402.424 469.959 401.165 470.3 399.562 470.527C398.017 470.754 396.586 471.152 396.414 471.379C396.243 471.663 395.098 472.061 393.839 472.288C392.58 472.515 391.435 472.856 391.264 473.14C391.092 473.424 389.947 473.765 388.688 473.992C387.429 474.219 386.284 474.56 386.113 474.844C385.941 475.071 384.968 475.469 383.881 475.639C382.736 475.866 381.133 476.378 380.275 476.832C379.416 477.286 378.329 477.684 377.928 477.684C377.528 477.684 376.784 477.911 376.211 478.195C373.121 479.672 371.06 480.524 369.572 480.865C368.657 481.092 367.226 481.603 366.425 482.001C365.623 482.455 364.65 482.796 364.25 482.796C363.906 482.796 362.876 483.137 361.961 483.591C356.581 486.261 350.514 489.044 350.056 489.044C349.255 489.101 341.242 493.077 339.182 494.497C338.209 495.122 336.034 496.315 334.317 497.224C328.48 500.12 325.275 501.938 323.729 503.131C322.871 503.813 321.898 504.381 321.612 504.381C321.326 504.381 320.238 504.949 319.265 505.687C316.747 507.391 315.373 508.243 313.714 509.038C312.912 509.436 311.367 510.402 310.28 511.197C307.933 512.901 306.331 513.923 305.129 514.434C304.671 514.662 303.698 515.457 303.011 516.252C301.809 517.502 300.493 518.41 298.318 519.49C297.86 519.717 296.544 520.91 295.342 522.103C294.198 523.295 292.996 524.261 292.767 524.261C292.137 524.261 279.374 536.871 279.374 537.496C279.374 537.78 278.745 538.632 278.001 539.484C277.2 540.336 275.311 542.437 273.708 544.198C272.106 545.959 270.789 547.549 270.789 547.777C270.789 548.231 270.446 548.686 267.699 551.866C266.554 553.173 265.639 554.479 265.639 554.82C265.639 555.161 265.467 555.502 265.238 555.615C264.551 555.899 262.205 559.364 262.205 560.046C262.205 560.33 261.976 560.614 261.747 560.614C261.461 560.614 260.717 561.75 260.03 563.113C259.343 564.476 258.37 565.896 257.912 566.294C257.454 566.692 257.054 567.43 257.054 567.998C257.054 568.566 256.653 569.304 256.195 569.702C255.737 570.1 255.337 570.838 255.337 571.349C255.337 571.86 254.936 572.769 254.478 573.337C254.02 573.962 253.62 574.871 253.62 575.439C253.62 575.95 253.219 576.689 252.761 577.086C252.246 577.484 251.96 578.109 252.075 578.449C252.246 578.79 251.903 579.529 251.388 580.097C249.957 581.744 250.014 600.034 251.445 602.079C252.017 602.817 252.475 603.953 252.475 604.521C252.475 606.509 256.596 610.599 260.774 612.644L264.78 614.689L273.308 614.632C277.944 614.632 282.064 614.405 282.465 614.121C282.808 613.837 285.784 613.439 289.104 613.212C292.366 612.984 295.342 612.587 295.686 612.36C295.972 612.076 298.147 611.678 300.436 611.451C302.668 611.224 304.671 610.826 304.843 610.599C305.014 610.315 307.132 609.974 309.593 609.747C311.997 609.52 314.286 609.122 314.629 608.838C314.973 608.554 316.862 608.156 318.807 607.986C320.696 607.759 322.299 607.418 322.299 607.134C322.299 606.907 324.244 606.566 326.591 606.339C328.938 606.112 330.883 605.714 330.883 605.487C330.883 605.203 332.543 604.805 334.604 604.635C336.664 604.408 338.438 604.01 338.61 603.783C338.781 603.499 340.27 603.158 341.929 602.931C343.532 602.703 345.192 602.306 345.535 602.022C345.878 601.738 347.767 601.34 349.713 601.17C351.602 600.943 353.204 600.602 353.204 600.375C353.204 600.091 354.749 599.75 356.638 599.523C358.527 599.295 360.072 598.898 360.072 598.671C360.072 598.387 361.732 597.989 363.792 597.819C365.852 597.591 367.684 597.194 367.798 596.967C367.97 596.683 369.859 596.285 371.976 596.115C374.094 595.887 376.097 595.49 376.44 595.206C376.784 594.922 379.359 594.524 382.164 594.354C384.968 594.127 387.601 593.729 388.001 593.388C388.516 592.99 394.755 592.763 405.801 592.763C419.422 592.706 423.027 592.877 423.771 593.502C424.401 594.013 424.744 594.07 424.744 593.615C424.744 593.274 425.145 592.99 425.603 592.99C426.061 592.99 426.461 593.218 426.461 593.502C426.461 593.786 428.465 594.183 430.926 594.411C433.329 594.638 435.619 594.979 435.905 595.263C436.248 595.49 437.679 595.887 439.224 596.058C440.712 596.285 442.601 596.853 443.517 597.307C444.375 597.705 445.52 598.103 446.092 598.103C446.607 598.103 447.065 598.33 447.065 598.671C447.065 598.955 447.637 599.239 448.381 599.239C449.068 599.239 450.156 599.579 450.785 600.034C451.415 600.431 452.788 600.999 453.818 601.227C454.791 601.397 455.65 601.851 455.65 602.135C455.65 602.419 456.279 602.647 457.081 602.647C457.882 602.647 458.683 603.044 458.855 603.499C459.084 603.953 459.771 604.351 460.515 604.351C461.201 604.351 462.461 604.862 463.262 605.487C464.063 606.112 465.093 606.623 465.551 606.623C465.952 606.623 466.81 607.134 467.44 607.816C468.012 608.44 469.271 609.349 470.244 609.804C472.076 610.656 474.079 611.792 474.537 612.36C474.708 612.53 475.223 612.871 475.681 613.098C477.226 613.78 478.772 614.802 480.889 616.393C482.034 617.301 483.236 617.983 483.579 617.983C484.438 617.983 505.442 638.715 505.442 639.567C505.442 639.908 506.301 641.272 507.331 642.578C508.418 643.884 509.448 645.361 509.677 645.816C509.906 646.27 510.707 647.69 511.509 648.94C512.253 650.189 513.054 651.666 513.226 652.177C513.455 652.745 513.798 653.2 514.027 653.2C514.313 653.2 514.656 653.995 514.885 654.904C515.114 655.869 515.515 656.608 515.801 656.608C516.087 656.608 516.316 657.062 516.316 657.573C516.316 658.141 516.717 659.334 517.175 660.186C517.632 661.038 518.148 662.629 518.377 663.765C518.548 664.844 518.949 665.866 519.235 666.037C519.521 666.15 519.865 667.57 520.093 669.104C520.322 670.695 520.666 671.944 520.895 671.944C521.124 671.944 521.467 673.194 521.696 674.784C521.925 676.318 522.326 677.738 522.612 677.908C522.898 678.079 523.298 679.442 523.47 680.919C523.642 682.396 524.043 683.986 524.329 684.554C524.615 685.065 525.015 687.451 525.244 689.95C525.473 692.393 525.817 694.665 526.103 695.005C526.561 695.573 527.133 699.493 527.362 704.037C527.476 705.287 527.705 706.593 527.934 706.991C528.163 707.331 528.507 711.932 528.678 717.215C528.907 722.44 529.308 727.098 529.594 727.496C529.995 727.95 529.995 728.177 529.594 728.177C528.907 728.177 528.965 731.472 529.651 732.551C529.88 732.892 529.823 733.289 529.537 733.403C529.308 733.46 528.907 736.13 528.678 739.197C528.507 742.321 528.106 745.104 527.763 745.502C527.476 745.843 527.076 747.774 526.847 749.819C526.675 751.807 526.275 753.681 525.988 754.022C525.702 754.306 525.473 755.101 525.473 755.783C525.473 756.464 525.13 757.316 524.672 757.657C524.271 757.998 523.756 759.532 523.527 761.065C523.356 762.599 522.783 764.133 522.326 764.53C521.868 764.928 521.467 765.609 521.467 766.007C521.467 766.859 521.181 767.541 519.578 770.494C519.121 771.403 518.09 773.334 517.404 774.754C516.66 776.174 515.114 778.503 513.912 779.98C512.711 781.457 511.738 782.82 511.738 783.104C511.738 783.729 498.402 796.907 497.773 796.907C497.487 796.907 495.77 798.213 493.938 799.747C492.107 801.337 490.447 802.587 490.275 802.587C490.047 802.587 488.902 803.325 487.757 804.177C486.613 805.086 483.465 806.904 480.66 808.267C477.913 809.63 475.395 811.05 475.052 811.505C474.651 811.902 473.964 812.243 473.392 812.243C472.82 812.243 472.076 812.584 471.732 813.038C471.332 813.493 470.359 814.004 469.5 814.174C468.642 814.402 466.41 815.31 464.521 816.219C459.542 818.548 456.966 819.627 456.279 819.627C455.593 819.627 455.135 819.855 451.701 821.559C450.613 822.07 448.61 822.638 447.237 822.865C445.863 823.035 444.604 823.433 444.432 823.66C444.261 823.944 442.887 824.285 441.342 824.512C439.739 824.739 438.48 825.08 438.48 825.307C438.48 825.591 436.935 825.932 435.046 826.159C433.158 826.387 431.612 826.784 431.612 827.011C431.612 827.295 429.609 827.636 427.205 827.864C424.744 828.091 422.455 828.488 422.112 828.772C421.768 829.056 419.536 829.454 417.075 829.624C414.672 829.852 412.726 830.192 412.726 830.42C412.726 830.647 409.978 831.044 406.602 831.272C403.168 831.499 400.135 831.896 399.848 832.124C399.505 832.408 394.64 832.805 388.974 833.032C383.308 833.26 378.386 833.657 377.986 833.941C377.585 834.282 377.242 834.168 377.127 833.714C376.898 833.146 376.669 833.146 376.04 833.657C375.41 834.168 366.768 834.452 343.475 834.736C326.019 834.964 311.424 835.304 311.081 835.588C310.738 835.872 310.165 835.759 309.765 835.361C309.25 834.85 308.963 834.85 308.563 835.532C308.105 836.27 307.876 836.27 306.731 835.588C305.93 835.077 305.415 835.02 305.243 835.418C304.843 836.668 209.265 836.781 208.406 835.532C208.235 835.304 203.484 834.907 197.818 834.68C192.152 834.452 187.288 834.112 186.944 833.828C186.658 833.6 182.881 833.203 178.645 832.976C174.41 832.748 170.69 832.408 170.347 832.124C170.061 831.896 166.569 831.499 162.62 831.272C158.671 831.044 155.237 830.647 154.894 830.42C154.608 830.136 149.686 829.795 144.02 829.568C132.23 829.113 131.6 829.056 130.856 828.602C130.513 828.432 123.989 828.091 116.262 827.864C108.536 827.636 102.011 827.239 101.725 826.955C101.382 826.671 98.5202 826.443 95.258 826.443C87.3599 826.443 87.3599 826.443 87.1882 817.923C87.0737 814.345 86.7303 811.278 86.4442 811.221C86.1008 811.05 86.158 810.71 86.5587 810.198C87.0737 809.574 87.0737 809.176 86.5014 808.551C85.9291 807.869 85.9291 807.529 86.5014 806.847C87.0165 806.279 87.0165 805.995 86.5587 805.995C85.7002 805.995 85.7574 804.121 86.6159 803.269C87.131 802.757 87.131 802.587 86.6159 802.587C85.7574 802.587 85.5857 766.518 86.5014 765.95C86.8448 765.723 86.7876 765.212 86.387 764.53C85.8719 763.735 85.8719 763.281 86.387 762.713C86.902 762.088 86.902 761.747 86.3297 761.179C85.8146 760.668 85.8146 760.384 86.3297 760.1C86.6731 759.872 86.9593 759.077 86.902 758.282C86.7304 751.807 87.8178 725.962 88.3901 724.883C88.9052 723.86 88.8479 723.463 88.2756 723.122C87.7033 722.724 87.7033 722.44 88.3329 721.418C88.9624 720.396 88.9624 720.112 88.2756 719.714C87.7605 719.373 87.7033 719.089 88.1612 718.862C88.9624 718.351 88.9624 716.249 88.1612 716.249C87.7033 716.249 87.7033 716.022 88.1039 715.511C88.5046 715.056 88.8479 707.047 89.1341 693.529C89.3058 681.43 89.7064 672.115 90.0498 672.058C90.336 671.944 90.2788 671.49 89.8781 671.035C89.363 670.411 89.363 670.013 89.9354 669.388C90.5077 668.707 90.5077 668.366 89.9354 667.684C89.4203 667.116 89.4203 666.605 89.8209 666.15C90.1643 665.696 90.5649 659.164 90.7938 650.076C91.0228 639.965 91.3662 634.285 91.824 633.376C92.3964 632.297 92.3391 631.956 91.7668 631.729C91.2517 631.558 91.1945 631.274 91.5951 630.82C91.8813 630.479 92.3391 624.572 92.568 617.699C92.7397 610.826 93.1404 604.919 93.4265 604.578C93.7127 604.237 93.6555 603.726 93.2548 603.328C92.797 602.874 92.797 602.476 93.1976 601.965C93.9416 601.113 94.1133 590.832 94.1706 544.653C94.2278 521.535 94.3995 512.844 94.9146 512.276C95.4297 511.651 95.3152 511.197 94.5712 510.288C93.6555 509.152 93.1976 509.095 85.8719 509.322C81.6367 509.436 77.2298 509.549 75.9707 509.493C74.7688 509.493 73.4525 509.72 72.9946 510.118C72.594 510.458 70.6481 510.799 68.7594 510.97C66.8135 511.083 64.9821 511.367 64.5814 511.594C63.0362 512.617 60.1173 513.298 58.7437 513.014C57.8853 512.901 56.5689 513.071 55.7104 513.469C54.852 513.866 53.4211 514.491 52.4482 514.946C51.5325 515.4 49.8727 515.911 48.8426 516.082C47.8124 516.309 46.8394 516.706 46.6677 516.934C46.496 517.218 45.9237 517.445 45.4086 517.445C44.8935 517.445 43.7489 517.786 42.8904 518.24C42.0319 518.694 40.4866 519.206 39.4565 519.433C38.4263 519.66 37.0527 520.228 36.4231 520.626C35.7936 521.08 34.7634 521.421 34.1339 521.421C33.5043 521.478 32.3597 522.216 31.5584 523.125C30.7571 524.091 29.6125 524.829 28.8685 524.829C28.1245 524.829 27.5521 525.056 27.5521 525.34C27.5521 525.624 26.8653 526.022 26.0641 526.192C25.2628 526.419 24.061 527.158 23.3742 527.896C22.6874 528.578 21.6572 529.316 21.1421 529.544C20.5698 529.714 20.1119 530.282 20.1119 530.793C20.1119 531.304 19.5968 531.645 18.8528 531.645C18.1088 531.702 16.9069 532.44 16.1057 533.349C15.3617 534.315 14.3887 535.053 13.9881 535.053C13.5875 535.053 13.2441 535.337 13.2441 535.678C13.2441 536.416 12.0994 537.552 10.8403 538.064C10.268 538.234 9.81012 538.802 9.81012 539.313C9.81012 539.768 9.46672 540.165 9.00887 540.165C8.03592 540.165 6.71957 541.699 7.46359 541.983C7.86422 542.097 9.0661 586.572 8.77994 592.65C8.7227 593.558 8.95163 594.695 9.29503 595.092C9.75289 595.603 9.75289 595.831 9.29503 595.831C8.95163 595.831 8.66547 596.228 8.66547 596.683C8.66547 597.137 8.95163 597.535 9.29503 597.535C9.75289 597.535 9.75289 597.819 9.2378 598.387C8.66547 599.068 8.66547 599.409 9.2378 600.091C9.81012 600.772 9.81012 601.113 9.2378 601.795C8.7227 602.363 8.7227 602.647 9.18056 602.647C9.63842 602.647 9.81012 605.884 9.81012 613.723C9.81012 621.959 9.63842 624.799 9.12333 624.799C8.60824 624.799 8.60824 624.97 9.12333 625.481C9.98182 626.333 10.039 628.207 9.18056 628.207C8.7227 628.207 8.7227 628.491 9.2378 629.059C9.81012 629.741 9.81012 630.082 9.2378 630.763C8.66547 631.445 8.66547 631.786 9.2378 632.467C9.69565 633.035 9.75289 633.319 9.35226 633.319C9.00887 633.319 8.7227 634.001 8.77994 634.853C8.83717 637.75 8.77994 726.133 8.7227 729.143C8.66547 730.733 8.8944 732.21 9.2378 732.437C9.63842 732.665 9.63842 733.062 9.35226 733.46C8.7227 734.255 8.77994 736.698 9.40949 737.72C9.69565 738.118 9.63842 738.799 9.2378 739.254C8.8944 739.651 8.83717 740.162 9.0661 740.276C9.81012 740.73 9.92458 747.319 9.2378 747.774C8.77994 748.058 8.77994 748.399 9.18056 748.853C9.58119 749.364 9.86735 768.109 10.0963 805.427C10.268 845.983 10.5541 861.376 11.012 861.717C11.4699 862.001 11.4699 862.171 11.012 862.455C10.2107 862.967 10.1535 865.068 10.9548 865.068C11.2982 865.068 11.5271 865.466 11.5271 865.92C11.5271 866.375 11.2409 866.772 10.8975 866.772C10.4397 866.772 10.4397 867 10.8403 867.454C11.1837 867.852 11.5271 870.464 11.6988 873.304C11.8132 876.372 12.2139 878.473 12.6145 878.587C12.9579 878.701 13.2441 879.155 13.2441 879.553C13.2441 880.461 15.0755 880.973 18.5094 880.973C19.9975 880.973 21.371 881.257 21.5427 881.541C21.8289 881.995 22.2295 881.938 22.8019 881.484C23.3742 880.973 23.7176 880.916 24.0037 881.37C24.2327 881.711 25.0339 881.995 25.8352 881.938C30.4138 881.825 51.9903 882.904 52.5054 883.302C52.8488 883.586 53.3639 883.529 53.7645 883.131C54.2224 882.677 54.623 882.677 55.1381 883.074C55.5387 883.415 60.6324 883.813 66.4129 884.04C72.2506 884.267 77.287 884.665 77.6876 885.006C78.1455 885.403 78.4889 885.346 78.7751 884.949C79.004 884.551 79.4046 884.494 79.8052 884.835C80.2059 885.176 83.697 885.574 87.6461 885.801C91.5951 886.028 95.029 886.369 95.3724 886.653C95.6586 886.88 99.2642 887.278 103.385 887.505C107.448 887.732 110.94 888.073 111.111 888.357C111.283 888.641 115.69 889.038 120.841 889.209C126.049 889.436 130.57 889.834 130.914 890.118C131.257 890.402 131.772 890.345 132.173 889.947C132.631 889.493 133.031 889.493 133.775 890.118C135.263 891.367 216.419 891.254 216.419 890.004C216.419 889.209 218.594 889.436 218.88 890.174C219.109 890.742 219.338 890.742 219.681 890.231C220.024 889.777 225.748 889.493 238.739 889.209C248.984 888.982 257.626 888.584 257.969 888.3C258.313 888.016 258.828 888.073 259.229 888.47C259.744 888.982 260.202 888.982 261.174 888.47C262.033 888.073 269.073 887.732 280.519 887.505C292.366 887.278 298.776 886.937 299.291 886.482C299.864 886.028 300.207 886.085 300.55 886.596C300.779 887.05 301.123 887.107 301.352 886.766C301.523 886.482 306.045 886.028 311.424 885.801C316.747 885.574 321.268 885.176 321.44 884.949C321.612 884.665 324.588 884.267 328.022 884.097C331.513 883.87 334.317 883.472 334.317 883.245C334.317 883.017 336.607 882.62 339.468 882.449C342.273 882.222 344.734 881.825 344.905 881.597C345.02 881.313 346.966 880.973 349.198 880.745C351.373 880.518 353.318 880.121 353.49 879.893C353.605 879.609 355.322 879.269 357.153 879.041C359.042 878.814 360.759 878.417 360.93 878.189C361.045 877.905 362.59 877.508 364.364 877.281C366.081 877.11 367.627 876.713 367.798 876.429C367.97 876.145 369.344 875.747 370.832 875.52C372.32 875.349 373.808 874.952 374.094 874.725C374.437 874.441 375.639 874.1 376.841 873.872C377.986 873.645 379.13 873.248 379.245 872.964C379.416 872.736 380.733 872.339 382.106 872.112C383.537 871.941 384.853 871.544 385.025 871.26C385.197 870.976 385.769 870.748 386.284 870.748C386.799 870.748 387.944 870.408 388.803 869.953C389.661 869.499 391.206 868.988 392.236 868.76C393.267 868.533 394.411 868.136 394.697 867.908C395.041 867.681 396.071 867.34 396.987 867.113C398.532 866.772 400.535 865.977 403.683 864.443C404.255 864.159 404.999 863.932 405.343 863.932C405.972 863.932 408.033 863.08 412.497 861.035C413.813 860.467 415.129 859.956 415.416 859.956C415.759 859.956 417.419 859.218 419.193 858.252C420.967 857.343 422.97 856.548 423.6 856.548C424.229 856.548 424.744 856.321 424.744 856.037C424.744 855.753 425.546 855.355 426.461 855.128C427.434 854.901 428.178 854.56 428.178 854.276C428.178 853.992 428.98 853.651 429.895 853.424C430.868 853.197 431.612 852.856 431.612 852.572C431.612 852.288 432.414 851.947 433.329 851.72C434.302 851.493 435.046 851.152 435.046 850.868C435.046 850.584 435.847 850.243 436.763 850.016C437.736 849.789 438.48 849.448 438.48 849.164C438.48 848.88 439.281 848.539 440.197 848.312C441.17 848.085 441.914 847.744 441.914 847.46C441.914 847.176 442.715 846.835 443.631 846.608C444.604 846.381 445.348 846.04 445.348 845.756C445.348 845.472 448.267 843.825 451.815 842.064C458.74 838.599 460.343 837.747 460.801 837.122C460.972 836.952 461.831 836.554 462.689 836.384C463.548 836.156 464.235 835.759 464.235 835.532C464.235 835.248 465.036 834.907 465.952 834.68C466.925 834.452 467.669 834.112 467.669 833.828C467.669 833.544 468.47 833.203 469.386 832.976C470.359 832.748 471.103 832.408 471.103 832.124C471.103 831.84 471.904 831.499 472.82 831.272C473.793 831.044 474.537 830.704 474.537 830.476C474.537 830.249 476.482 829.113 478.829 827.92C481.176 826.727 483.121 825.591 483.121 825.307C483.121 825.023 483.923 824.683 484.838 824.455C485.811 824.228 486.555 823.887 486.555 823.603C486.555 823.376 487.013 822.979 487.586 822.808C489.417 822.127 491.706 820.707 491.706 820.252C491.706 819.968 492.393 819.571 493.252 819.343C494.11 819.173 494.969 818.775 495.14 818.605C495.713 817.866 499.089 815.651 499.719 815.651C500.005 815.651 500.291 815.424 500.291 815.14C500.291 814.856 500.749 814.458 501.321 814.288C503.153 813.606 505.442 812.186 505.442 811.732C505.442 811.448 505.9 811.107 506.472 810.88C507.56 810.539 507.674 810.482 514.199 806.109C516.66 804.518 518.834 803.155 519.006 803.155C519.178 803.155 520.265 802.417 521.467 801.451C522.669 800.542 523.814 799.747 524.043 799.747C524.271 799.747 525.416 799.008 526.618 798.043C527.82 797.134 528.965 796.339 529.193 796.339C529.422 796.339 530.567 795.6 531.769 794.635C532.971 793.726 534.115 792.931 534.344 792.931C534.573 792.931 536.176 791.795 537.836 790.375C539.438 788.955 540.983 787.819 541.212 787.819C541.441 787.819 543.501 786.171 545.791 784.127C548.08 782.082 550.14 780.434 550.369 780.434C550.598 780.434 553.174 778.276 556.093 775.606C559.011 772.937 561.644 770.778 561.93 770.778C562.56 770.778 579.844 753.624 579.844 752.943C579.844 752.716 581.504 750.671 583.564 748.512C585.624 746.297 587.284 744.252 587.284 743.968C587.284 743.684 588.429 742.094 589.86 740.503C591.29 738.856 592.435 737.322 592.435 737.095C592.435 736.811 593.179 735.618 594.038 734.482C594.896 733.346 596.155 731.415 596.728 730.165C597.357 728.916 598.158 727.496 598.559 727.041C599.589 725.678 602.737 719.487 602.737 718.635C602.737 718.294 602.966 717.953 603.252 717.953C603.538 717.953 603.996 717.101 604.168 716.136C604.397 715.113 604.969 713.75 605.37 713.125C605.827 712.5 606.171 711.364 606.171 710.512C606.171 709.66 606.572 708.695 607.029 708.297C607.487 707.899 607.888 706.877 607.888 705.968C607.888 705.059 608.117 704.321 608.403 704.321C608.632 704.321 609.033 702.73 609.261 700.856C609.433 698.925 609.891 696.994 610.234 696.596C610.749 696.028 610.692 695.573 610.234 695.005C609.719 694.381 609.719 694.153 610.292 693.983C611.207 693.642 611.265 666.094 610.292 664.958C610.005 664.617 609.548 661.436 609.319 658.028C609.09 654.563 608.689 651.496 608.46 651.212C608.231 650.871 607.831 648.996 607.602 646.952C607.373 644.907 606.972 642.976 606.743 642.692C606.514 642.351 606.114 640.533 605.885 638.545C605.656 636.614 605.312 635.023 605.026 635.023C604.797 635.023 604.454 633.774 604.225 632.183C603.996 630.65 603.653 629.23 603.367 629.116C603.08 628.946 602.68 627.866 602.508 626.787C602.279 625.708 601.878 624.799 601.592 624.799C601.306 624.799 600.906 623.663 600.677 622.243C600.505 620.823 600.104 619.687 599.875 619.687C599.589 619.687 599.246 618.949 599.017 617.983C598.788 617.074 598.445 616.279 598.158 616.279C597.872 616.279 597.529 615.541 597.3 614.575C597.071 613.666 596.67 612.871 596.384 612.871C596.098 612.871 595.869 612.587 595.869 612.303C595.869 611.508 593.523 608.213 592.607 607.588C592.206 607.361 591.863 606.85 591.863 606.452C591.863 605.657 581.561 595.263 580.817 595.263C580.531 595.263 579.386 594.24 578.184 592.99C577.04 591.741 575.781 590.718 575.494 590.718C575.151 590.718 574.178 589.923 573.262 589.014C572.347 588.049 571.316 587.31 570.916 587.31C570.572 587.31 570.115 586.913 569.886 586.458C569.714 586.004 569.256 585.606 568.913 585.606C568.569 585.606 567.31 584.811 566.166 583.902C562.903 581.176 562.846 581.119 561.301 580.721C560.499 580.551 559.813 580.153 559.813 579.869C559.813 579.585 559.24 579.074 558.554 578.79C557.294 578.279 556.55 577.825 554.261 576.518C553.689 576.177 552.773 575.78 552.258 575.609C551.686 575.382 551.228 575.041 551.228 574.814C551.228 574.53 550.484 574.189 549.511 573.962C548.595 573.735 547.794 573.337 547.794 573.053C547.794 572.769 547.107 572.372 546.249 572.201C545.39 571.974 544.303 571.463 543.902 571.008C543.501 570.611 542.643 570.27 542.013 570.27C541.441 570.27 540.926 570.043 540.926 569.759C540.926 569.475 540.125 569.077 539.152 568.85C538.179 568.623 536.748 568.112 535.89 567.657C535.031 567.203 534.001 566.862 533.6 566.862C533.2 566.862 532.456 566.635 531.883 566.351C528.335 564.647 526.561 564.022 524.157 563.681C522.669 563.511 521.353 563.113 521.181 562.886C521.009 562.602 519.121 562.204 517.003 562.034C514.885 561.807 512.882 561.409 512.596 561.125C512.253 560.898 508.304 560.5 503.84 560.273C499.318 560.046 495.541 559.648 495.369 559.364C494.911 558.626 480.947 558.796 480.489 559.535C480.26 559.989 479.974 559.932 479.687 559.421C479.344 558.91 479.001 558.853 478.428 559.307C478.028 559.648 472.591 560.046 465.723 560.273C459.141 560.5 453.475 560.841 453.132 561.125C452.788 561.409 449.927 561.807 446.779 562.034C443.631 562.261 440.827 562.659 440.483 562.886C440.197 563.113 437.679 563.511 434.932 563.738C432.127 563.965 429.895 564.306 429.895 564.59C429.895 564.817 427.835 565.215 425.317 565.385C422.799 565.612 420.624 566.01 420.452 566.294C420.28 566.521 418.392 566.919 416.16 567.146C413.928 567.373 412.039 567.771 411.867 567.998C411.695 568.282 409.921 568.68 407.861 568.85C405.801 569.077 404.141 569.475 404.141 569.702C404.141 569.986 402.595 570.327 400.707 570.554C398.818 570.781 397.273 571.179 397.273 571.406C397.273 571.633 395.728 572.031 393.839 572.258C391.95 572.485 390.405 572.826 390.405 573.11C390.405 573.337 388.803 573.678 386.914 573.905C384.968 574.076 383.079 574.473 382.736 574.757C382.393 575.041 380.504 575.439 378.501 575.666C376.555 575.893 374.838 576.291 374.666 576.518C374.494 576.802 372.892 577.2 371.061 577.427C369.286 577.597 367.569 577.995 367.226 578.222C366.94 578.449 364.994 578.847 362.934 579.074C360.873 579.301 358.87 579.756 358.469 580.097C357.268 581.062 345.707 580.949 343.703 579.926C340.899 578.563 340.041 577.541 339.697 575.268C339.468 574.076 339.068 572.94 338.839 572.769C338.152 572.372 338.152 568.736 338.839 568.339C339.068 568.168 339.468 566.635 339.697 564.874C339.869 563.17 340.556 560.841 341.242 559.705C341.872 558.569 342.273 557.49 342.101 557.319C341.929 557.206 342.559 556.07 343.475 554.934C344.447 553.741 345.192 552.548 345.192 552.264C345.192 551.355 346.851 548.288 347.767 547.55C348.225 547.152 348.625 546.47 348.625 545.959C348.625 545.505 350.171 543.346 352.059 541.245C353.948 539.143 355.493 537.155 355.493 536.814C355.493 536.473 357.21 534.315 359.385 532.1C361.503 529.828 363.506 527.442 363.849 526.817C364.193 526.192 364.994 525.397 365.623 525.113C366.253 524.772 370.259 521.251 374.552 517.274C378.787 513.298 382.45 510.061 382.621 510.061C382.85 510.061 384.51 508.754 386.342 507.221C388.173 505.63 389.833 504.381 390.062 504.381C390.348 504.381 391.435 503.585 392.523 502.677C393.553 501.711 394.697 500.972 395.041 500.972C395.384 500.972 396.815 500.007 398.303 498.814C401.222 496.485 402.195 495.917 409.006 492.452C411.524 491.146 413.985 489.896 414.443 489.612C414.9 489.328 417.648 488.079 420.452 486.772C423.314 485.466 426.347 484.046 427.205 483.591C428.121 483.137 429.094 482.796 429.437 482.796C430.01 482.796 432.299 481.887 435.905 480.24C436.878 479.786 438.423 479.274 439.339 479.047C440.312 478.82 441.342 478.479 441.628 478.252C441.971 478.025 443.116 477.627 444.203 477.4C445.291 477.173 446.493 476.775 446.779 476.548C447.122 476.321 448.553 475.923 450.041 475.753C451.529 475.526 452.903 475.128 453.074 474.844C453.246 474.56 454.791 474.162 456.508 473.992C458.283 473.765 459.828 473.367 459.942 473.14C460.114 472.856 461.659 472.458 463.376 472.288C465.15 472.061 466.696 471.663 466.81 471.436C466.982 471.152 469.157 470.754 471.675 470.527C474.193 470.357 476.254 469.959 476.254 469.732C476.254 469.505 480.832 469.107 486.441 468.88C491.992 468.709 497.086 468.312 497.716 468.028C498.345 467.744 501.035 467.403 503.668 467.176C506.358 467.005 508.819 466.608 509.105 466.381C509.448 466.097 513.054 465.756 517.06 465.585C521.124 465.415 524.729 465.017 525.073 464.733C525.473 464.449 528.964 464.052 532.799 463.881C536.691 463.711 540.182 463.313 540.525 462.972C540.926 462.688 542.929 462.291 545.104 462.064C547.222 461.836 549.053 461.439 549.225 461.212C549.396 460.984 551.285 460.587 553.517 460.36C555.749 460.132 557.638 459.735 557.81 459.508C557.981 459.28 559.87 458.883 562.102 458.656C564.334 458.428 566.28 458.031 566.452 457.747C566.623 457.463 567.482 457.236 568.398 457.236C569.313 457.236 570.229 456.952 570.401 456.668C570.572 456.384 571.202 456.1 571.774 456.1C572.347 456.1 573.148 455.702 573.548 455.248C573.892 454.85 575.437 454.282 576.868 454.111C578.356 453.941 579.958 453.544 580.416 453.316C580.931 453.032 582.133 452.635 583.106 452.464C584.079 452.237 585.052 451.669 585.224 451.215C585.396 450.76 586.14 450.419 586.826 450.419C589.516 450.363 590.26 449.17 590.203 444.682C590.203 442.41 589.917 440.422 589.631 440.252C589.345 440.082 588.944 438.321 588.715 436.333C588.486 434.401 588.085 432.697 587.857 432.527C587.628 432.357 587.227 430.482 586.998 428.267C586.769 426.052 586.369 424.177 586.14 424.007C585.853 423.836 585.453 421.678 585.224 419.179C585.052 416.68 584.652 414.635 584.423 414.635C584.194 414.635 583.793 412.703 583.564 410.375C583.335 408.046 582.992 406.114 582.706 406.114C582.477 406.114 582.076 404.07 581.904 401.57C581.675 399.071 581.275 396.913 581.046 396.742C580.76 396.629 580.359 394.413 580.187 391.914C579.958 389.415 579.558 387.256 579.329 387.086C579.043 386.972 578.642 384.984 578.413 382.712C578.242 380.44 577.841 378.282 577.555 377.998C577.326 377.657 576.925 375.499 576.696 373.17C576.525 370.841 576.124 368.626 575.838 368.342C575.609 368.001 575.265 365.729 575.037 363.23C574.808 360.73 574.407 358.458 574.178 358.117C573.892 357.833 573.491 355.732 573.262 353.573C573.033 351.358 572.69 349.313 572.404 349.029C572.175 348.688 571.774 346.473 571.545 344.088C571.316 341.645 570.916 339.543 570.687 339.373C570.401 339.203 570 337.044 569.771 334.545C569.599 332.046 569.199 330.001 568.97 330.001C568.684 330.001 568.34 328.07 568.111 325.741C567.882 323.412 567.482 321.481 567.253 321.481C567.024 321.481 566.623 319.549 566.394 317.221C566.166 314.892 565.822 312.96 565.536 312.96C565.307 312.96 564.906 311.029 564.677 308.7C564.449 306.372 564.105 304.44 563.819 304.44C563.59 304.44 563.189 302.85 562.961 300.862C562.732 298.931 562.331 297.056 562.102 296.772C561.873 296.431 561.472 294.614 561.244 292.626C561.015 290.694 560.671 289.104 560.385 289.104C560.156 289.104 559.813 287.684 559.641 285.923C559.469 284.219 559.069 282.458 558.725 282.117C558.439 281.72 557.981 280.016 557.752 278.312C557.523 276.608 557.18 274.904 556.951 274.62C556.722 274.279 556.322 272.688 556.093 271.098C555.864 269.451 555.463 267.974 555.177 267.804C554.948 267.633 554.547 266.213 554.318 264.623C554.089 263.089 553.689 261.669 553.46 261.499C553.174 261.328 552.945 260.647 552.945 259.965C552.945 259.283 552.544 257.977 552.086 257.125C551.629 256.216 551.113 254.228 550.884 252.694C550.656 251.161 550.255 249.741 550.026 249.57C549.74 249.4 549.511 248.832 549.511 248.264C549.511 247.696 549.11 246.446 548.652 245.594C548.195 244.685 547.794 243.379 547.794 242.697C547.794 242.016 547.565 241.277 547.222 241.107C546.935 240.937 546.649 240.084 546.649 239.232C546.649 238.38 546.306 237.188 545.848 236.563C545.447 235.938 544.932 234.234 544.703 232.757C544.474 231.28 544.074 229.917 543.845 229.747C543.559 229.633 543.158 228.327 542.986 226.907C542.757 225.543 542.357 224.237 542.071 224.067C541.785 223.896 541.384 222.59 541.155 221.226C540.983 219.806 540.583 218.67 540.354 218.67C540.125 218.67 539.724 217.137 539.495 215.262C539.266 213.388 538.866 211.854 538.637 211.854C538.351 211.854 537.95 211.002 537.778 209.98C537.549 209.014 537.149 207.878 536.92 207.594C536.634 207.253 536.29 205.833 536.061 204.3C535.832 202.823 535.432 201.63 535.146 201.63C534.917 201.63 534.516 200.437 534.287 198.904C534.115 197.427 533.715 195.95 533.486 195.666C533.2 195.325 532.856 194.132 532.627 192.94C532.398 191.803 531.998 190.667 531.712 190.497C531.425 190.327 531.197 189.645 531.197 188.963C531.197 188.282 530.796 187.032 530.395 186.18C529.937 185.271 529.365 183.454 529.136 182.034C528.964 180.614 528.564 179.478 528.278 179.478C528.049 179.478 527.648 178.342 527.419 176.922C527.248 175.502 526.847 174.365 526.618 174.365C526.389 174.365 525.988 173.229 525.817 171.809C525.588 170.389 525.187 169.253 524.958 169.253C524.672 169.253 524.271 168.117 524.1 166.697C523.871 165.334 523.47 164.028 523.184 163.857C522.955 163.687 522.554 162.551 522.326 161.301C522.097 160.052 521.696 158.916 521.41 158.688C521.124 158.518 520.895 157.836 520.895 157.155C520.895 156.473 520.494 155.167 520.036 154.315C519.578 153.463 519.063 151.815 518.834 150.679C518.605 149.543 518.09 147.953 517.69 147.158C517.232 146.363 516.888 145.283 516.888 144.772C516.888 144.261 516.488 143.068 516.03 142.216C515.572 141.307 515.172 140.001 515.172 139.319C515.172 138.638 514.943 137.899 514.599 137.729C514.313 137.558 514.027 136.934 514.027 136.422C514.027 135.911 513.626 134.718 513.168 133.809C512.711 132.957 512.31 131.765 512.31 131.253C512.31 130.742 511.909 129.606 511.451 128.697C510.994 127.845 510.593 126.653 510.593 126.141C510.593 125.63 510.25 124.551 509.792 123.699C509.334 122.904 508.819 121.143 508.59 119.893C508.361 118.587 508.017 117.451 507.731 117.28C507.502 117.11 507.102 116.144 506.93 115.065C506.701 113.929 506.186 112.339 505.728 111.487C505.27 110.635 504.87 109.499 504.87 108.987C504.87 108.476 504.469 107.283 504.011 106.431C503.553 105.522 503.153 104.386 503.153 103.875C503.153 103.364 502.752 102.171 502.294 101.319C501.836 100.41 501.436 99.2175 501.436 98.7063C501.436 98.1951 501.207 97.6271 500.921 97.4567C500.634 97.2863 500.234 96.2071 500.005 95.0142C499.776 93.8782 499.261 92.4013 498.803 91.7765C498.345 91.1517 498.002 89.9589 498.002 89.1637C498.002 88.3685 497.601 87.2325 497.143 86.6644C496.685 86.0396 496.285 84.9604 496.285 84.222C496.285 83.4836 496.056 82.9155 495.713 82.9155C495.426 82.9155 495.14 82.4611 495.14 81.8931C495.14 81.3819 494.797 80.2459 494.339 79.3938C493.881 78.5418 493.366 77.0083 493.137 75.9858C492.908 74.9634 492.336 73.6002 491.935 72.9754C491.477 72.3505 491.134 71.2713 491.134 70.5897C491.134 69.8513 490.905 69.2833 490.562 69.2833C490.275 69.2833 489.989 68.8289 489.989 68.2609C489.989 67.7497 489.646 66.6136 489.188 65.7616C488.73 64.9096 488.215 63.4895 487.986 62.5239C487.757 61.5583 487.414 60.7631 487.128 60.7631C486.842 60.7631 486.498 59.9679 486.269 59.059C486.04 58.0934 485.64 57.355 485.353 57.355C485.067 57.355 484.838 56.787 484.838 56.1054C484.838 54.8558 484.495 54.3445 481.233 51.1069C478.486 48.3804 477.742 47.8124 476.082 47.4148C475.281 47.1876 474.479 46.6764 474.308 46.222C474.136 45.7676 473.392 45.4267 472.591 45.4267C471.847 45.4267 471.103 45.0292 470.874 44.5748C470.702 44.1204 469.901 43.7227 469.099 43.7227C468.298 43.7227 467.669 43.4387 467.669 43.1547C467.669 42.8139 467.154 42.5867 466.581 42.5867C465.952 42.5867 465.093 42.1891 464.635 41.7347C464.177 41.2803 462.747 40.7691 461.43 40.5419C460.114 40.3147 459.084 39.9738 459.084 39.6898C459.084 39.4626 458.168 39.065 457.081 38.8378C455.993 38.6674 454.906 38.2698 454.734 37.9858C454.562 37.7018 453.647 37.4745 452.674 37.4745C451.701 37.4745 450.442 37.0769 449.869 36.5657C449.297 36.0545 447.58 35.4865 446.092 35.3729C444.604 35.2025 443.059 34.8618 442.773 34.5777C442.429 34.3505 440.197 33.9529 437.736 33.7257C435.275 33.4985 433.158 33.1577 433.043 32.8737C432.871 32.6465 430.41 32.2488 427.606 32.0216C424.744 31.8512 422.283 31.3969 422.112 31.1697C421.711 30.4881 419.594 30.5448 419.594 31.2264C419.594 31.5104 418.334 31.7945 416.789 31.7945C415.187 31.7945 413.756 31.5104 413.584 31.2264C413.126 30.5448 410.608 30.4881 410.207 31.1697C410.036 31.3969 407.746 31.8513 405.171 32.0785C402.538 32.3057 400.135 32.7033 399.791 32.9873C399.448 33.2713 397.788 33.5553 396.071 33.5553C394.354 33.6121 392.408 34.0097 391.721 34.4641C391.035 34.8617 390.062 35.2026 389.604 35.2026C388.516 35.2026 386.055 38.3834 385.54 40.4283C385.311 41.2803 384.796 42.0755 384.338 42.2459C383.881 42.4163 383.537 43.2115 383.537 44.0067C383.537 44.8019 383.308 45.4267 383.022 45.4267C382.736 45.4267 382.335 46.2788 382.164 47.358C381.935 48.4372 381.42 49.5732 380.962 49.9708C380.504 50.3684 380.103 51.1637 380.103 51.7317C380.103 52.2997 379.874 52.8677 379.588 53.0381C379.302 53.2085 378.901 54.2878 378.73 55.367C378.501 56.4462 378.1 57.355 377.814 57.355C377.585 57.355 377.184 58.0934 376.955 59.059C376.727 59.9679 376.326 60.7631 376.04 60.7631C375.754 60.7631 375.525 61.2175 375.525 61.7287C375.525 62.2967 375.181 63.4327 374.723 64.2847C374.266 65.1368 373.75 66.5568 373.579 67.4088C373.35 68.3177 372.434 70.5897 371.518 72.4641C370.545 74.2818 369.801 76.2698 369.801 76.781C369.801 77.349 369.572 77.8035 369.286 77.8035C369 77.8035 368.599 78.5986 368.371 79.5075C368.142 80.4731 367.226 82.6884 366.31 84.506C365.395 86.2668 364.65 88.1981 364.65 88.7093C364.65 89.2773 364.422 89.7317 364.078 89.7317C363.792 89.7317 363.506 90.2997 363.506 91.0381C363.506 91.7197 363.162 92.7989 362.705 93.4238C362.304 94.0486 361.732 95.4119 361.503 96.3775C361.331 97.3999 360.93 98.2519 360.644 98.2519C360.358 98.2519 360.015 98.9903 359.786 99.9559C359.557 100.865 359.213 101.66 358.927 101.66C358.698 101.66 358.298 102.796 358.126 104.216C357.897 105.636 357.496 106.772 357.21 106.772C356.924 106.772 356.523 107.567 356.352 108.59C356.123 109.555 355.322 111.487 354.635 112.85C353.891 114.156 353.147 116.031 352.918 116.996C352.689 117.905 352.288 118.7 352.002 118.7C351.716 118.7 351.487 119.268 351.487 120.007C351.487 120.688 351.144 121.768 350.686 122.392C350.285 123.017 349.713 124.38 349.484 125.403C349.255 126.425 348.74 127.959 348.282 128.811C347.824 129.663 347.481 130.629 347.481 131.026C347.481 131.367 347.137 132.389 346.68 133.298C344.963 136.706 342.959 141.194 342.616 142.557C342.387 143.352 341.986 144.204 341.758 144.545C341.529 144.829 341.185 145.851 340.956 146.817C340.727 147.726 340.212 149.259 339.754 150.225C338.095 153.86 337.179 156.076 337.179 156.7C337.179 157.041 336.95 157.78 336.664 158.348C335.176 161.415 334.317 163.46 333.974 164.937C333.745 165.845 333.23 167.265 332.829 168.061C332.371 168.856 332.028 169.878 332.028 170.276C332.028 170.673 331.799 171.412 331.513 171.98C331.284 172.491 330.597 173.968 330.025 175.218C329.51 176.467 328.823 177.944 328.537 178.455C328.251 179.023 328.022 179.762 328.022 180.159C328.022 180.557 327.678 181.579 327.221 182.431C326.763 183.283 326.248 184.817 326.019 185.839C325.79 186.862 325.389 187.941 325.16 188.282C324.931 188.566 324.531 189.702 324.302 190.667C324.13 191.69 323.729 192.542 323.443 192.542C323.157 192.542 322.756 193.678 322.528 195.098C322.356 196.518 321.955 197.654 321.669 197.654C321.44 197.654 321.039 198.79 320.811 200.21C320.639 201.63 320.238 202.766 320.009 202.766C319.723 202.766 319.322 203.618 319.151 204.584C318.922 205.606 318.521 206.685 318.292 207.026C318.063 207.31 317.663 208.446 317.434 209.412C317.262 210.434 316.862 211.286 316.575 211.286C316.289 211.286 315.889 212.422 315.66 213.842C315.488 215.262 315.087 216.398 314.858 216.398C314.572 216.398 314.172 217.25 314 218.216C313.771 219.239 313.199 220.602 312.798 221.226C312.34 221.851 311.997 222.931 311.997 223.612C311.997 224.351 311.768 224.919 311.424 224.919C311.138 224.919 310.852 225.373 310.852 225.884C310.852 226.452 310.509 227.588 310.051 228.44C309.593 229.292 309.078 230.712 308.849 231.678C308.62 232.644 308.277 233.439 307.99 233.439C307.704 233.439 307.304 234.575 307.075 235.995C306.903 237.415 306.502 238.551 306.274 238.551C306.045 238.551 305.644 239.687 305.472 241.107C305.243 242.527 304.843 243.663 304.614 243.663C304.328 243.663 303.927 244.799 303.755 246.219C303.526 247.639 303.126 248.775 302.84 248.775C302.553 248.775 302.153 249.627 301.981 250.593C301.752 251.615 301.352 252.694 301.123 253.035C300.894 253.319 300.493 254.455 300.264 255.421C300.092 256.443 299.692 257.295 299.406 257.295C299.177 257.295 298.833 258.318 298.604 259.511C298.433 260.76 297.86 262.578 297.288 263.657C295.571 267.008 295.399 267.519 295.399 268.201C295.399 268.599 295.056 269.621 294.598 270.416C294.197 271.212 293.682 272.632 293.453 273.54C293.11 275.017 292.252 277.062 290.764 280.129C290.477 280.697 290.248 281.436 290.248 281.833C290.248 282.231 289.905 283.253 289.447 284.105C288.989 284.957 288.474 286.434 288.245 287.457C288.016 288.536 287.616 289.729 287.387 290.24C285.67 293.818 285.098 295.295 284.754 296.772C284.525 297.681 284.182 298.703 283.953 299.044C283.667 299.328 283.323 300.578 283.094 301.771C282.866 302.907 282.465 303.986 282.236 304.156C281.95 304.327 281.606 305.463 281.377 306.712C281.149 307.962 280.748 309.098 280.462 309.325C280.176 309.496 279.947 310.064 279.947 310.575C279.947 311.086 279.603 312.222 279.145 313.017C278.745 313.812 278.23 315.233 278.001 316.141C277.657 317.618 276.799 319.663 275.311 322.73C275.025 323.298 274.796 324.037 274.796 324.434C274.796 324.832 274.452 325.854 273.995 326.706C273.537 327.558 273.022 329.092 272.793 330.114C272.564 331.137 271.991 332.5 271.591 333.125C271.133 333.75 270.789 334.829 270.789 335.511C270.789 336.249 270.561 336.817 270.274 336.817C269.931 336.817 269.53 337.953 269.301 339.373C269.13 340.793 268.729 341.929 268.5 341.929C268.214 341.929 267.813 342.781 267.642 343.747C267.413 344.769 266.955 345.962 266.669 346.303C266.268 346.814 266.268 347.041 266.669 347.041C267.069 347.041 266.955 347.609 266.44 348.575C266.039 349.484 265.639 350.62 265.639 351.131C265.639 351.699 265.41 352.153 265.123 352.153C264.837 352.153 264.437 353.289 264.265 354.709C264.036 356.129 263.635 357.265 263.349 357.265C263.063 357.265 262.663 358.117 262.491 359.083C262.262 360.106 261.861 361.185 261.632 361.526C261.403 361.81 261.003 362.946 260.774 363.911C260.602 364.934 260.202 365.786 259.915 365.786C259.686 365.786 259.286 366.922 259.114 368.342C258.885 369.762 258.485 370.898 258.141 370.898C257.855 370.898 257.626 371.466 257.626 372.204C257.626 372.886 257.283 373.965 256.825 374.59C256.424 375.215 255.852 376.635 255.623 377.714C255.394 378.793 254.993 379.929 254.764 380.27C254.536 380.554 254.135 381.69 253.906 382.656C253.734 383.678 253.334 384.53 253.047 384.53C252.819 384.53 252.418 385.666 252.246 387.086C252.017 388.506 251.617 389.642 251.388 389.642C251.102 389.642 250.758 390.721 250.586 392.085C250.415 393.448 249.842 395.265 249.385 396.174C248.87 397.14 248.469 398.333 248.469 398.844C248.469 399.355 248.24 399.923 247.954 400.094C247.725 400.264 247.324 401.23 247.095 402.252C246.809 403.899 246.122 405.546 244.405 409.068C244.119 409.636 243.89 410.375 243.89 410.772C243.89 411.17 243.547 412.192 243.089 413.044C242.631 413.896 242.116 415.43 241.887 416.452C241.658 417.475 241.029 418.952 240.456 419.747C239.941 420.542 239.312 422.246 239.083 423.552C238.911 424.859 238.396 426.62 237.938 427.529C236.393 430.425 235.305 433.265 235.305 434.117C235.305 434.629 235.077 435.14 234.79 435.31C234.39 435.594 233.703 437.696 233.302 439.911C233.245 440.195 232.902 441.218 232.558 442.07C232.158 442.978 231.872 443.887 231.872 444.171C231.872 444.455 231.414 445.478 230.899 446.557C229.182 449.908 229.01 450.419 229.01 451.101C229.01 451.499 228.666 452.521 228.209 453.316C227.808 454.112 227.293 455.702 227.064 456.838C226.835 457.974 226.32 459.621 225.862 460.473C225.404 461.325 225.004 462.518 225.004 463.029C225.004 463.541 224.775 464.109 224.489 464.279C224.202 464.449 223.802 465.529 223.63 466.608C223.401 467.687 223 468.596 222.714 468.596C222.371 468.596 222.142 469.107 222.142 469.789V470.925L183.396 470.527C159.244 470.3 144.306 469.959 143.905 469.561C143.39 469.221 142.875 469.221 142.36 469.675C141.788 470.129 141.444 470.186 141.158 469.732C140.7 468.993 121.07 468.937 120.555 469.732C119.982 470.641 93.541 470.47 93.0259 469.618C92.7397 469.221 92.4536 466.608 92.3391 463.768C92.2247 460.984 91.8813 458.428 91.5951 458.144C90.8511 457.349 90.9655 446.046 91.6523 445.591C92.1102 445.307 92.053 444.967 91.5951 444.398C91.1372 443.887 91.1372 443.376 91.5379 442.865C91.8813 442.467 92.2247 427.358 92.5108 401.854C92.7397 379.645 93.0831 361.242 93.3693 360.957C93.5982 360.617 93.9416 350.449 94.1706 338.237C94.3995 326.082 94.8001 315.857 95.029 315.517C95.3152 315.233 95.7158 308.814 95.9448 301.316C96.1737 293.818 96.5171 287.4 96.8032 287.116C97.0322 286.775 97.4328 281.833 97.6617 276.04C97.8907 270.246 98.234 265.247 98.5202 264.963C98.7491 264.623 99.1498 260.306 99.3215 255.307C99.5504 250.309 99.951 245.992 100.237 245.651C100.466 245.367 100.867 241.164 101.096 236.336C101.325 231.508 101.725 227.134 102.011 226.679C102.24 226.168 102.641 222.533 102.87 218.5C103.042 214.524 103.442 211.286 103.728 211.286C104.015 211.286 104.243 209.128 104.243 206.515C104.243 203.845 104.472 201.573 104.759 201.403C105.045 201.233 105.445 197.597 105.674 193.394C105.903 189.191 106.304 185.612 106.533 185.442C106.762 185.271 107.162 181.636 107.391 177.376C107.62 173.059 108.021 169.253 108.25 168.969C108.479 168.629 108.879 164.539 109.108 159.881C109.337 155.167 109.738 151.247 110.024 151.077C110.253 150.907 110.653 146.59 110.882 141.534C111.111 136.479 111.455 132.333 111.684 132.333C111.913 132.333 112.256 128.47 112.485 123.699C112.714 118.587 113.114 114.781 113.515 114.27C114.03 113.702 113.973 113.361 113.343 113.02C112.714 112.566 112.657 112.282 113.229 111.373C113.687 110.691 114.087 106.829 114.316 101.546C114.488 96.775 114.889 92.5717 115.118 92.2877C115.404 91.9469 115.747 87.1188 115.976 81.5523C116.205 75.929 116.663 70.8737 117.006 70.3625C117.464 69.6241 117.464 69.1696 116.949 68.6016C116.548 68.0904 116.491 67.5792 116.777 67.2384C117.063 66.9544 117.464 62.1263 117.693 56.503C117.922 50.8797 118.323 46.1652 118.552 45.9948C118.78 45.8244 119.124 43.0979 119.238 39.8602C119.467 35.0889 119.353 34.0665 118.666 34.0665C118.265 34.0665 117.75 33.5553 117.579 32.9305C117.407 32.3057 116.949 31.7945 116.548 31.7945C116.148 31.7945 115.06 30.9992 114.145 30.0904C113.286 29.1248 112.256 28.3864 111.855 28.3864C111.512 28.3864 110.997 27.8752 110.825 27.1935C110.596 26.5687 109.623 25.6599 108.593 25.2623C107.563 24.8079 106.361 24.0695 105.96 23.5583C105.503 23.0471 104.072 22.0814 102.698 21.4566C101.325 20.8318 99.951 19.8094 99.6076 19.2414C99.3215 18.6166 98.6919 18.1622 98.234 18.1622C97.7762 18.1622 97.3756 17.8782 97.3756 17.5942C97.3756 17.2534 96.9749 17.0261 96.5171 17.0261C95.1435 17.0261 91.08 15.0949 91.08 14.4701C91.08 13.8453 85.8719 11.346 84.4983 11.346C84.0404 11.346 83.6398 11.1188 83.6398 10.8348C83.6398 10.5508 82.8958 10.1532 81.9228 9.92599C81.0071 9.69879 80.2059 9.30119 80.2059 9.01719C80.2059 8.73318 79.6335 8.50598 78.8895 8.50598C78.2027 8.50598 77.1153 8.16512 76.4858 7.71071C75.8562 7.3131 74.4826 6.74512 73.5097 6.51791C72.4795 6.34751 71.621 5.89311 71.621 5.60911C71.621 5.3251 71.0487 5.0979 70.3047 5.0979C69.5607 5.0979 68.4732 4.70027 67.8437 4.24586C66.5273 3.22344 64.6387 3.16666 63.723 4.07548C63.2651 4.52989 63.0362 4.58666 63.0362 4.13225C63.0362 3.79144 62.1777 3.28024 61.2047 3.10983C60.1746 2.88263 59.0299 2.485 58.7437 2.2578C58.4004 1.97379 54.9664 1.63303 51.0174 1.40583C47.0684 1.17862 43.5772 0.781029 43.1766 0.497023C42.7759 0.0994142 42.4325 0.156183 42.1464 0.553792C41.6885 1.29221 39.1703 1.29221 38.7124 0.553792C38.2546 -0.184624 37.4533 -0.184624 36.9955 0.553792Z" fill="#D8D0C5"/>
</svg>
